<svg width="126" height="130" viewBox="0 0 126 130" fill="none" xmlns="http://www.w3.org/2000/svg">
<g clip-path="url(#clip0_201_2318)">
<path d="M32.0969 67.1268C32.3281 66.8308 32.4917 66.4877 32.576 66.1217C32.6603 65.7556 32.6633 65.3755 32.5849 65.0082C32.5065 64.6408 32.3485 64.2951 32.1221 63.9954C31.8957 63.6958 31.6063 63.4494 31.2744 63.2737L31.0571 40.1997L26.7461 42.1788L27.6943 64.4947C27.4362 65.072 27.3987 65.724 27.5891 66.3271C27.7794 66.9302 28.1842 67.4425 28.7269 67.767C29.2696 68.0914 29.9124 68.2055 30.5335 68.0875C31.1546 67.9695 31.7109 67.6277 32.0969 67.1268Z" fill="#9E616A"/>
<path d="M31.9809 34.3582C31.9809 34.3582 27.7872 32.3232 27.2072 36.1626C26.6272 40.002 24.2417 49.9945 24.2417 49.9945L31.4806 49.4824L31.9809 34.3582Z" fill="#9E616A"/>
<path d="M32.0969 67.1268C32.3281 66.8308 32.4917 66.4877 32.576 66.1217C32.6603 65.7556 32.6633 65.3755 32.5849 65.0082C32.5065 64.6408 32.3485 64.2951 32.1221 63.9954C31.8957 63.6958 31.6063 63.4494 31.2744 63.2737L31.0571 40.1997L26.7461 42.1788L27.6943 64.4947C27.4362 65.072 27.3987 65.724 27.5891 66.3271C27.7794 66.9302 28.1842 67.4425 28.7269 67.767C29.2696 68.0914 29.9124 68.2055 30.5335 68.0875C31.1546 67.9695 31.7109 67.6277 32.0969 67.1268Z" fill="#9E616A"/>
<path d="M31.9809 34.3582C31.9809 34.3582 27.7872 32.3232 27.2072 36.1626C26.6272 40.002 24.2417 49.9945 24.2417 49.9945L31.4806 49.4824L31.9809 34.3582Z" fill="#F12679"/>
<path d="M19.8381 123.242C19.6688 123.25 19.5011 123.206 19.3579 123.115C19.2147 123.024 19.1028 122.892 19.0374 122.735C18.972 122.579 18.9563 122.406 18.9923 122.24C19.0284 122.075 19.1145 121.924 19.2389 121.809C19.2598 121.726 19.2747 121.666 19.2956 121.584C19.2881 121.566 19.2806 121.547 19.2731 121.529C19.1025 121.126 18.8167 120.783 18.4515 120.542C18.0863 120.301 17.658 120.173 17.2205 120.174C16.7829 120.176 16.3556 120.307 15.9922 120.551C15.6289 120.795 15.3456 121.14 15.178 121.545C14.5082 123.158 13.6555 124.775 13.4455 126.481C13.353 127.235 13.3921 128 13.5608 128.741C11.9877 125.308 11.1708 121.577 11.1656 117.8C11.1652 116.853 11.2179 115.906 11.3232 114.964C11.4103 114.192 11.5311 113.426 11.6856 112.665C12.5287 108.535 14.339 104.665 16.9678 101.371C18.2401 100.677 19.269 99.609 19.9159 98.3115C20.1503 97.8451 20.3159 97.3472 20.4077 96.8334C20.2642 96.8522 20.1183 96.864 19.9748 96.8734C19.93 96.8757 19.883 96.8781 19.8383 96.8804L19.8214 96.8812C19.6637 96.8883 19.5073 96.8496 19.371 96.7698C19.2347 96.69 19.1244 96.5725 19.0533 96.4315C18.9822 96.2904 18.9534 96.1318 18.9704 95.9748C18.9873 95.8178 19.0492 95.669 19.1487 95.5463C19.2107 95.47 19.2727 95.3938 19.3348 95.3176C19.4289 95.1999 19.5253 95.0845 19.6195 94.9668C19.6303 94.9557 19.6405 94.9439 19.65 94.9315C19.7583 94.7974 19.8665 94.6656 19.9748 94.5314C19.7772 94.2246 19.5115 93.9677 19.1983 93.7806C18.1136 93.145 16.6172 93.5852 15.8337 94.5667C15.0478 95.5482 14.8996 96.9252 15.1725 98.1515C15.4409 99.1949 15.8849 100.185 16.4854 101.079C16.4266 101.155 16.3654 101.228 16.3066 101.303C15.2313 102.686 14.2941 104.172 13.5085 105.738C13.6996 103.983 13.4715 102.208 12.8432 100.559C12.2063 99.0225 11.0126 97.7281 9.96148 96.3995C8.69885 94.8036 6.10974 95.5001 5.88729 97.5231C5.88513 97.5427 5.88304 97.5623 5.88098 97.5818C6.03712 97.67 6.18995 97.7635 6.33949 97.8624C6.52735 97.988 6.67291 98.1674 6.75711 98.3771C6.8413 98.5868 6.8602 98.8171 6.81133 99.0378C6.76246 99.2584 6.6481 99.4592 6.48323 99.6137C6.31836 99.7683 6.11068 99.8694 5.88739 99.9038L5.86452 99.9073C5.92014 100.47 6.01846 101.028 6.15863 101.576C6.56478 103.106 7.28248 104.535 8.26675 105.775C9.25102 107.014 10.4806 108.037 11.8785 108.779C11.9702 108.826 12.0597 108.873 12.1514 108.917C11.3621 111.155 10.867 113.486 10.6785 115.852C10.5718 117.247 10.5781 118.649 10.6974 120.044L10.6903 119.994C10.3891 118.443 9.56217 117.044 8.34916 116.033C6.54754 114.552 4.00219 114.007 2.05855 112.817C1.85199 112.684 1.61182 112.614 1.36635 112.613C1.12087 112.612 0.88035 112.682 0.673144 112.814C0.465939 112.945 0.300695 113.134 0.196897 113.356C0.0930992 113.579 0.0550808 113.826 0.087324 114.07C0.0899307 114.087 0.0925776 114.104 0.0952698 114.122C0.385007 114.24 0.66711 114.376 0.939944 114.529C1.09608 114.617 1.24891 114.71 1.39845 114.809C1.58631 114.935 1.73188 115.114 1.81607 115.324C1.90027 115.534 1.91917 115.764 1.8703 115.985C1.82143 116.205 1.70707 116.406 1.5422 116.561C1.37733 116.715 1.16965 116.816 0.946354 116.851L0.923473 116.854C0.907 116.857 0.892886 116.859 0.87644 116.861C1.3715 118.044 2.06632 119.132 2.93049 120.079C3.99802 121.225 5.28828 122.141 6.72215 122.77C8.15603 123.399 9.7033 123.729 11.2691 123.739H11.2715C11.6965 125.587 12.3123 127.385 13.1091 129.106H19.6736C19.6971 129.033 19.7183 128.957 19.7395 128.884C19.1318 128.922 18.5218 128.886 17.923 128.776C18.4101 128.178 18.8971 127.576 19.3842 126.978C19.395 126.967 19.4053 126.955 19.4148 126.942C19.6618 126.636 19.9112 126.333 20.1583 126.027L20.1584 126.026C20.1716 125.089 20.064 124.153 19.8383 123.242L19.8381 123.242Z" fill="#E6E6E6"/>
<path d="M116.619 123.242C116.45 123.25 116.282 123.206 116.139 123.115C115.995 123.024 115.884 122.892 115.818 122.735C115.753 122.579 115.737 122.406 115.773 122.24C115.809 122.075 115.895 121.924 116.02 121.809C116.041 121.726 116.056 121.666 116.076 121.584C116.069 121.566 116.061 121.547 116.054 121.529C115.883 121.126 115.597 120.783 115.232 120.542C114.867 120.301 114.439 120.173 114.001 120.174C113.564 120.176 113.136 120.307 112.773 120.551C112.41 120.795 112.126 121.14 111.959 121.545C111.289 123.158 110.436 124.775 110.226 126.481C110.134 127.235 110.173 128 110.342 128.741C108.768 125.308 107.952 121.577 107.946 117.8C107.946 116.853 107.999 115.906 108.104 114.964C108.191 114.192 108.312 113.426 108.466 112.665C109.309 108.535 111.12 104.665 113.749 101.371C115.021 100.677 116.05 99.609 116.697 98.3115C116.931 97.8451 117.097 97.3472 117.188 96.8334C117.045 96.8522 116.899 96.864 116.756 96.8734C116.711 96.8757 116.664 96.8781 116.619 96.8804L116.602 96.8812C116.444 96.8883 116.288 96.8496 116.152 96.7698C116.015 96.69 115.905 96.5725 115.834 96.4315C115.763 96.2904 115.734 96.1318 115.751 95.9748C115.768 95.8178 115.83 95.669 115.93 95.5463C115.991 95.47 116.053 95.3938 116.116 95.3176C116.21 95.1999 116.306 95.0845 116.4 94.9668C116.411 94.9557 116.421 94.9439 116.431 94.9315C116.539 94.7974 116.647 94.6656 116.756 94.5314C116.558 94.2246 116.292 93.9677 115.979 93.7806C114.894 93.145 113.398 93.5852 112.614 94.5667C111.829 95.5482 111.68 96.9252 111.953 98.1515C112.222 99.1949 112.666 100.185 113.266 101.079C113.207 101.155 113.146 101.228 113.087 101.303C112.012 102.686 111.075 104.172 110.289 105.738C110.48 103.983 110.252 102.208 109.624 100.559C108.987 99.0225 107.793 97.7281 106.742 96.3995C105.48 94.8036 102.89 95.5001 102.668 97.5231C102.666 97.5427 102.664 97.5623 102.662 97.5818C102.818 97.67 102.971 97.7635 103.12 97.8624C103.308 97.988 103.454 98.1674 103.538 98.3771C103.622 98.5868 103.641 98.8171 103.592 99.0378C103.543 99.2584 103.429 99.4592 103.264 99.6137C103.099 99.7683 102.891 99.8694 102.668 99.9038L102.645 99.9073C102.701 100.47 102.799 101.028 102.939 101.576C103.346 103.106 104.063 104.535 105.048 105.775C106.032 107.014 107.261 108.037 108.659 108.779C108.751 108.826 108.84 108.873 108.932 108.917C108.143 111.155 107.648 113.486 107.459 115.852C107.353 117.247 107.359 118.649 107.478 120.044L107.471 119.994C107.17 118.443 106.343 117.044 105.13 116.033C103.328 114.552 100.783 114.007 98.8393 112.817C98.6328 112.684 98.3926 112.614 98.1471 112.613C97.9016 112.612 97.6611 112.682 97.4539 112.814C97.2467 112.945 97.0815 113.134 96.9777 113.356C96.8739 113.579 96.8358 113.826 96.8681 114.07C96.8707 114.087 96.8733 114.104 96.876 114.122C97.1658 114.24 97.4479 114.376 97.7207 114.529C97.8768 114.617 98.0297 114.71 98.1792 114.809C98.3671 114.935 98.5126 115.114 98.5968 115.324C98.681 115.534 98.6999 115.764 98.6511 115.985C98.6022 116.205 98.4878 116.406 98.323 116.561C98.1581 116.715 97.9504 116.816 97.7271 116.851L97.7042 116.854C97.6878 116.857 97.6736 116.859 97.6572 116.861C98.1523 118.044 98.8471 119.132 99.7113 120.079C100.779 121.225 102.069 122.141 103.503 122.77C104.937 123.399 106.484 123.729 108.05 123.739H108.052C108.477 125.587 109.093 127.385 109.89 129.106H116.454C116.478 129.033 116.499 128.957 116.52 128.884C115.913 128.922 115.303 128.886 114.704 128.776C115.191 128.178 115.678 127.576 116.165 126.978C116.176 126.967 116.186 126.955 116.196 126.942C116.443 126.636 116.692 126.333 116.939 126.027L116.939 126.026C116.952 125.089 116.845 124.153 116.619 123.242L116.619 123.242Z" fill="#E6E6E6"/>
<path d="M91.3398 129.062C91.3209 129.062 91.3021 129.062 91.2832 129.061C90.8028 129.034 90.3515 128.822 90.0233 128.47C89.695 128.118 89.5151 127.653 89.521 127.172C89.521 124.244 87.4299 122.535 85.3575 122.141C83.2852 121.748 80.7134 122.57 79.6401 125.295L78.6642 127.745C77.8205 128.587 76.6773 129.06 75.4855 129.06C74.2937 129.06 73.1505 128.587 72.3068 127.745L72.249 127.688L72.2849 127.614L89.521 92.336V91.4714C89.4971 91.2049 89.4973 90.9368 89.5214 90.6703L89.521 1.81881C89.521 1.57526 89.5698 1.33419 89.6647 1.1099C89.7596 0.885612 89.8986 0.682669 90.0733 0.513116C90.2481 0.343562 90.4551 0.210854 90.6822 0.122859C90.9092 0.0348647 91.1516 -0.00662466 91.3949 0.000858746C91.8753 0.0283256 92.3266 0.240058 92.6548 0.591985C92.9831 0.943912 93.163 1.40892 93.1572 1.89023V90.6806C93.1811 90.9471 93.1809 91.2152 93.1568 91.4817L93.1572 92.3357L110.429 127.687L110.371 127.745C109.528 128.587 108.384 129.06 107.193 129.06C106.001 129.06 104.858 128.587 104.014 127.745L103.988 127.706L103.038 125.295C101.965 122.57 99.3934 121.748 97.3207 122.141C95.2483 122.535 93.1572 124.244 93.1572 127.172V127.244C93.1572 127.726 92.9657 128.188 92.6249 128.529C92.2841 128.87 91.8219 129.062 91.3398 129.062L91.3398 129.062Z" fill="#E6E6E6"/>
<path d="M122.89 64.3118H59.7877C59.0542 64.311 58.351 64.0191 57.8323 63.5002C57.3136 62.9814 57.0218 62.2779 57.021 61.5441V17.4098C57.0218 16.676 57.3136 15.9725 57.8323 15.4536C58.3509 14.9348 59.0542 14.6429 59.7877 14.6421H122.89C123.624 14.6429 124.327 14.9348 124.846 15.4537C125.364 15.9726 125.656 16.6761 125.657 17.4098V61.5441C125.656 62.2779 125.364 62.9813 124.846 63.5002C124.327 64.0191 123.624 64.3109 122.89 64.3118Z" fill="white"/>
<path d="M122.89 64.6551H59.7877C58.9632 64.6542 58.1727 64.3261 57.5897 63.7429C57.0067 63.1597 56.6787 62.369 56.6777 61.5442V17.4098C56.6787 16.585 57.0067 15.7942 57.5897 15.211C58.1727 14.6278 58.9632 14.2998 59.7877 14.2988H122.89C123.715 14.2998 124.505 14.6278 125.088 15.2111C125.671 15.7943 125.999 16.585 126 17.4098V61.5442C125.999 62.369 125.671 63.1597 125.088 63.7429C124.505 64.3261 123.715 64.6542 122.89 64.6551ZM59.7877 14.9855C59.1452 14.9862 58.5291 15.2418 58.0748 15.6963C57.6204 16.1508 57.3649 16.767 57.3641 17.4098V61.5442C57.3649 62.187 57.6205 62.8032 58.0748 63.2576C58.5292 63.7121 59.1452 63.9677 59.7877 63.9685H122.89C123.533 63.9677 124.149 63.7121 124.603 63.2576C125.057 62.8032 125.313 62.187 125.314 61.5442V17.4098C125.313 16.7671 125.057 16.1508 124.603 15.6963C124.149 15.2418 123.533 14.9862 122.89 14.9855H59.7877Z" fill="#F2F2F2"/>
<path d="M100.669 17.4014H82.009C80.826 17.4 79.6918 16.9293 78.8553 16.0925C78.0188 15.2557 77.5482 14.1211 77.5469 12.9376V12.8564H105.131V12.9376C105.13 14.1211 104.659 15.2557 103.823 16.0925C102.986 16.9293 101.852 17.4 100.669 17.4014Z" fill="#E6E6E6"/>
<path d="M100.75 67.0713H82.0901C80.9071 67.07 79.7729 66.5992 78.9364 65.7624C78.0998 64.9256 77.6293 63.791 77.6279 62.6075V62.5264H105.212V62.6075C105.211 63.791 104.74 64.9256 103.904 65.7624C103.067 66.5992 101.933 67.07 100.75 67.0713Z" fill="#E6E6E6"/>
<path d="M125.762 129.289C125.762 129.325 125.755 129.361 125.741 129.394C125.728 129.427 125.708 129.457 125.682 129.482C125.657 129.508 125.627 129.528 125.594 129.541C125.561 129.555 125.525 129.562 125.49 129.562H0.272267C0.200058 129.562 0.130811 129.533 0.0797516 129.482C0.0286917 129.431 0 129.362 0 129.289C0 129.217 0.0286917 129.148 0.0797516 129.097C0.130811 129.046 0.200058 129.017 0.272267 129.017H125.49C125.525 129.017 125.561 129.024 125.594 129.038C125.627 129.051 125.657 129.071 125.682 129.097C125.708 129.122 125.728 129.152 125.741 129.185C125.755 129.218 125.762 129.254 125.762 129.289Z" fill="#CCCCCC"/>
<path d="M42.1682 122.949H45.4665L47.0356 110.222L42.1675 110.222L42.1682 122.949Z" fill="#9E616A"/>
<path d="M41.0515 121.322L46.2655 121.01V123.245L51.2227 126.67C51.4675 126.839 51.6519 127.082 51.7489 127.363C51.846 127.645 51.8505 127.95 51.762 128.234C51.6734 128.518 51.4964 128.767 51.2567 128.943C51.0171 129.119 50.7273 129.214 50.4297 129.214H44.2222L43.1523 127.004L42.7345 129.214H40.394L41.0515 121.322Z" fill="#2F2E41"/>
<path d="M30.9509 52.1597L30.6278 53.7001L30.353 59.382L41.391 57.887L42.2387 51.3076L41.0671 49.3818L30.9509 52.1597Z" fill="#9E616A"/>
<path d="M25.4758 122.949H28.7741L30.3432 110.222L25.4751 110.222L25.4758 122.949Z" fill="#9E616A"/>
<path d="M23.686 100.464L23.6859 100.43L24.9205 94.6642L25.6819 91.7938L23.5656 74.9874C23.0674 62.777 30.1486 56.9075 30.2043 56.8498L30.3579 56.6901L41.7143 56.4121C47.8246 60.0745 47.1329 80.1055 48.2518 93.7283C48.3316 94.6997 49.3343 96.1335 49.0878 97.0575C47.1326 104.388 47.7053 112.315 46.2157 112.549L41.6487 112.486L39.29 101.777L41.4673 93.6089C40.5016 93.4309 39.8343 88.7082 39.8343 88.7082C39.4135 88.2084 37.9609 83.9576 37.9609 83.9576L36.024 72.191L32.9122 92.4294L33.6616 97.1774L33.0414 98.8099L30.3855 112.288L30.3573 112.505L25.35 112.005L23.686 100.464Z" fill="#2F2E41"/>
<path d="M24.3586 121.322L29.5726 121.01V123.245L34.5298 126.67C34.7746 126.839 34.959 127.082 35.0561 127.363C35.1531 127.645 35.1577 127.95 35.0691 128.234C34.9806 128.518 34.8035 128.767 34.5639 128.943C34.3242 129.119 34.0344 129.214 33.7369 129.214H27.5294L26.4594 127.004L26.0416 129.214H23.7012L24.3586 121.322Z" fill="#2F2E41"/>
<path d="M40.0572 29.9389L42.8412 33.0333L46.185 39.3384L44.5425 47.113L45.2606 50.7612L46.3211 54.7717C42.2349 57.0328 37.3812 53.9101 32.922 52.5231L28.5347 54.4622L28.7667 49.1244L28.8856 35.6753C28.8902 35.1588 29.0009 34.6487 29.2107 34.1767C29.4206 33.7047 29.7252 33.2809 30.1056 32.9316C30.486 32.5823 30.9342 32.315 31.4222 32.1461C31.9102 31.9773 32.4278 31.9107 32.9426 31.9503L35.8812 29.7842L40.0572 29.9389Z" fill="#F12679"/>
<path d="M39.2775 28.319C42.5196 28.319 45.1478 25.6899 45.1478 22.4466C45.1478 19.2034 42.5196 16.5742 39.2775 16.5742C36.0354 16.5742 33.4072 19.2034 33.4072 22.4466C33.4072 25.6899 36.0354 28.319 39.2775 28.319Z" fill="#9E616A"/>
<path d="M46.185 20.3271C46.0816 20.9025 43.6104 21.1802 43.6847 20.1565C43.2039 21.1203 42.4855 22.519 43.4006 24.1211C43.0422 24.5117 42.8163 25.0057 42.7555 25.5324C42.6946 26.0591 42.8018 26.5916 43.0617 27.0538C43.3221 27.4772 43.5402 27.9253 43.713 28.3915C43.7479 28.5046 43.7728 28.6206 43.7874 28.7381C43.8022 28.8562 43.7849 28.9761 43.7373 29.0852C43.6898 29.1943 43.6138 29.2886 43.5174 29.3582C43.4209 29.4278 43.3074 29.4702 43.1889 29.4808C43.0705 29.4915 42.9513 29.4701 42.8439 29.4188C40.3546 28.1991 36.0134 28.4058 33.29 29.15C33.3081 28.62 33.3009 28.0912 33.2682 27.5636C33.1688 28.2234 32.9027 28.8469 32.4952 29.3751C32.0289 29.513 31.5717 29.6564 31.129 29.798C31.0615 29.8199 30.9893 29.823 30.9201 29.8071C30.851 29.7912 30.7874 29.7569 30.7362 29.7077C30.685 29.6585 30.6481 29.5964 30.6294 29.5279C30.6107 29.4594 30.6109 29.3872 30.63 29.3188C30.7163 29.0055 30.7324 28.677 30.6772 28.3568C30.5647 27.6925 30.2309 27.0917 29.995 26.4619C29.7591 25.832 29.6248 25.1078 29.9133 24.4998C30.3615 23.5559 31.6243 23.2673 32.1814 22.3834C32.8073 21.3905 32.3211 20.0964 32.419 18.9257C32.5569 17.2703 33.9123 15.9254 35.4401 15.2755C38.0855 14.1502 41.395 15.0616 43.3781 17.1416C43.6563 16.9537 43.9811 16.8466 44.3164 16.8322C44.6518 16.8178 44.9845 16.8966 45.2778 17.06C45.8639 17.374 46.2848 17.5373 46.5479 18.149C46.7783 18.6863 46.2903 19.7499 46.185 20.3271Z" fill="#2F2E41"/>
<path d="M43.6636 89.3846L29.8525 75.5684C29.6921 75.4076 29.6021 75.1898 29.6021 74.9627C29.602 74.7355 29.6921 74.5177 29.8525 74.3569L39.5085 64.6973C39.6692 64.5369 39.887 64.4468 40.1141 64.4468C40.3411 64.4468 40.5589 64.5369 40.7196 64.6973L54.5307 78.5135C54.6911 78.6743 54.7812 78.8921 54.7812 79.1192C54.7812 79.3464 54.6911 79.5642 54.5307 79.725L44.8747 89.3846C44.7139 89.545 44.4962 89.6351 44.2691 89.6351C44.0421 89.6351 43.8243 89.545 43.6636 89.3846Z" fill="white"/>
<path d="M44.269 89.8641C44.1265 89.8646 43.9853 89.8368 43.8536 89.7823C43.7219 89.7278 43.6023 89.6477 43.5017 89.5467L29.6905 75.7306C29.4872 75.5269 29.373 75.2509 29.373 74.963C29.373 74.6752 29.4872 74.3992 29.6905 74.1955L39.3466 64.5359C39.5503 64.3325 39.8262 64.2183 40.114 64.2183C40.4017 64.2183 40.6777 64.3325 40.8813 64.5359L54.6923 78.352C54.8957 78.5556 55.0098 78.8317 55.0098 79.1195C55.0098 79.4073 54.8957 79.6834 54.6923 79.8871L45.0362 89.5467C44.9357 89.6477 44.8161 89.7278 44.6844 89.7823C44.5527 89.8368 44.4115 89.8646 44.269 89.8641ZM40.1139 64.676C40.0315 64.6757 39.9499 64.6917 39.8737 64.7232C39.7975 64.7547 39.7284 64.8011 39.6703 64.8595L30.0141 74.5191C29.8966 74.637 29.8306 74.7966 29.8306 74.963C29.8306 75.1295 29.8966 75.2891 30.0141 75.4069L43.8252 89.2231C43.9449 89.3369 44.1038 89.4004 44.269 89.4004C44.4342 89.4004 44.593 89.3369 44.7127 89.2231L54.3688 79.5634C54.4863 79.4456 54.5523 79.2859 54.5523 79.1195C54.5523 78.9531 54.4863 78.7935 54.3688 78.6756L40.5576 64.8595C40.4995 64.8011 40.4303 64.7548 40.3542 64.7233C40.278 64.6918 40.1963 64.6757 40.1139 64.676Z" fill="#E6E6E6"/>
<path d="M38.4596 65.9828C38.2284 65.6868 38.0649 65.3437 37.9806 64.9776C37.8963 64.6116 37.8933 64.2315 37.9717 63.8641C38.0501 63.4968 38.2081 63.1511 38.4345 62.8514C38.6609 62.5517 38.9503 62.3053 39.2822 62.1296L39.4995 39.0557L43.8105 41.0348L42.8623 63.3506C43.1204 63.9279 43.1578 64.5799 42.9675 65.1831C42.7772 65.7862 42.3724 66.2985 41.8297 66.6229C41.287 66.9474 40.6442 67.0614 40.0231 66.9434C39.4019 66.8255 38.8457 66.4836 38.4596 65.9828Z" fill="#9E616A"/>
<path d="M38.5757 33.2136C38.5757 33.2136 42.7693 31.1787 43.3493 35.0181C43.9293 38.8575 46.3148 48.85 46.3148 48.85L39.0759 48.3378L38.5757 33.2136Z" fill="#9E616A"/>
<path d="M38.4596 65.9828C38.2284 65.6868 38.0649 65.3437 37.9806 64.9776C37.8963 64.6116 37.8933 64.2315 37.9717 63.8641C38.0501 63.4968 38.2081 63.1511 38.4345 62.8514C38.6609 62.5517 38.9503 62.3053 39.2822 62.1296L39.4995 39.0557L43.8105 41.0348L42.8623 63.3506C43.1204 63.9279 43.1578 64.5799 42.9675 65.1831C42.7772 65.7862 42.3724 66.2985 41.8297 66.6229C41.287 66.9474 40.6442 67.0614 40.0231 66.9434C39.4019 66.8255 38.8457 66.4836 38.4596 65.9828Z" fill="#9E616A"/>
<path d="M38.5757 33.2136C38.5757 33.2136 42.7693 31.1787 43.3493 35.0181C43.9293 38.8575 46.3148 48.85 46.3148 48.85L39.0759 48.3378L38.5757 33.2136Z" fill="#F12679"/>
</g>
<defs>
<clipPath id="clip0_201_2318">
<rect width="126" height="130" fill="white"/>
</clipPath>
</defs>
</svg>
