<svg width="159" height="143" viewBox="0 0 159 143" fill="none" xmlns="http://www.w3.org/2000/svg">
<path d="M107.67 17.7874C125.189 -7.36206 146.889 -0.692333 157.187 6.81113C158.371 7.6742 159 9.08166 159 10.5472V138C159 140.761 156.761 143 154 143H43.8527C41.8065 143 39.9968 141.735 39.0147 139.94C34.1109 130.977 24.3491 123.545 19.2549 120.474C18.9317 120.28 18.6275 120.056 18.3555 119.794C5.54582 107.477 0.944876 88.7987 0.246744 80.9242C-3.13999 29.1413 29.1751 27.5143 45.756 33.1736C81.3167 47.6049 101.849 28.9292 107.67 17.7874Z" fill="white" fill-opacity="0.1"/>
</svg>
