<svg width="20" height="20" viewBox="0 0 20 20" fill="none" xmlns="http://www.w3.org/2000/svg">
<g clip-path="url(#clip0_381_3034)">
<path d="M4.5324 1.68042V0.33192C4.5324 0.171714 4.66227 0.0418515 4.82247 0.0418515H19.3599V0.0417969C19.5203 0.0417969 19.65 0.171682 19.65 0.331866V17.8622C19.65 18.0224 19.5201 18.1522 19.3599 18.1522L11.9431 18.1524C11.9431 18.1524 11.9431 18.1524 11.9431 18.1524C11.9419 18.1529 11.9405 18.1535 11.9386 18.1543C11.9329 18.1566 11.9229 18.1607 11.9105 18.1623L11.9103 18.1623L2.73713 19.3566L2.73708 19.3567C2.72463 19.3583 2.71228 19.3591 2.69971 19.3591C2.63569 19.3591 2.57312 19.3381 2.52202 19.2983M4.5324 1.68042L2.55272 19.2589M4.5324 1.68042L0.604348 2.16732C0.604334 2.16732 0.60432 2.16732 0.604306 2.16732L0.604253 2.16733L0.610403 2.21695L4.5324 1.68042ZM2.52202 19.2983L2.55272 19.2589M2.52202 19.2983C2.52207 19.2984 2.52211 19.2984 2.52216 19.2984L2.55272 19.2589M2.52202 19.2983C2.46086 19.251 2.4212 19.1815 2.41186 19.1048M2.55272 19.2589C2.50199 19.2197 2.46918 19.1621 2.46148 19.0986M2.41186 19.1048L2.46148 19.0986M2.41186 19.1048L2.41185 19.1047M2.41186 19.1048L2.41185 19.1047M2.46148 19.0986L2.41185 19.1047M2.46148 19.0986L2.41185 19.1047M0.352207 2.49094L0.401809 2.48464L0.352189 2.49079L0.352198 2.49087C0.342501 2.41435 0.363778 2.33744 0.411099 2.27677L0.4111 2.27677L0.450479 2.30748L0.352207 2.49094ZM7.49488 18.1523L2.95147 18.7438L0.963415 2.70675L4.53247 2.26433V17.8622C4.53247 18.0224 4.66215 18.1523 4.82254 18.1523H7.49488ZM19.07 17.5723H5.11247V0.621551H19.07V17.5723Z" fill="#F12679" stroke="#F12679" stroke-width="0.1"/>
<path d="M7.77227 14.3345L7.77227 14.3345C7.77227 14.1743 7.90213 14.0444 8.06233 14.0444L7.77227 14.3345ZM7.77227 14.3345C7.77247 14.4945 7.90209 14.6244 8.06234 14.6244H16.1199M7.77227 14.3345L16.1199 14.6244M16.1199 14.6244C16.2801 14.6244 16.41 14.4945 16.41 14.3343M16.1199 14.6244L16.41 14.3343M16.41 14.3343C16.41 14.1741 16.2803 14.0442 16.1199 14.0442M16.41 14.3343L16.1199 14.0442M16.1199 14.0442L8.06234 14.0444L16.1199 14.0442Z" fill="#F12679" stroke="#F12679" stroke-width="0.1"/>
<path d="M7.77227 11.7159L7.77227 11.7158C7.77227 11.5556 7.90213 11.4258 8.06233 11.4258L7.77227 11.7159ZM7.77227 11.7159C7.77247 11.8758 7.90209 12.0057 8.06234 12.0057H16.1199M7.77227 11.7159L16.1199 12.0057M16.1199 12.0057C16.2801 12.0057 16.41 11.8759 16.41 11.7157M16.1199 12.0057L16.41 11.7157M16.41 11.7157C16.41 11.5555 16.2803 11.4256 16.1199 11.4256M16.41 11.7157L16.1199 11.4256M16.1199 11.4256L8.06234 11.4258L16.1199 11.4256Z" fill="#F12679" stroke="#F12679" stroke-width="0.1"/>
<path d="M7.77227 9.09723L7.77227 9.09717C7.77227 8.93696 7.90213 8.8071 8.06233 8.8071L7.77227 9.09723ZM7.77227 9.09723C7.77247 9.25718 7.90209 9.38707 8.06234 9.38707H16.1199M7.77227 9.09723L16.1199 9.38707M16.1199 9.38707C16.2801 9.38707 16.41 9.25721 16.41 9.097M16.1199 9.38707L16.41 9.097M16.41 9.097C16.41 8.93682 16.2803 8.80693 16.1199 8.80693M16.41 9.097L16.1199 8.80693M16.1199 8.80693L8.06234 8.8071L16.1199 8.80693Z" fill="#F12679" stroke="#F12679" stroke-width="0.1"/>
<path d="M7.77227 6.47858L7.77227 6.47852C7.77227 6.31831 7.90213 6.18845 8.06233 6.18845L7.77227 6.47858ZM7.77227 6.47858C7.77247 6.63853 7.90209 6.76842 8.06234 6.76842H16.1199M7.77227 6.47858L16.1199 6.76842M16.1199 6.76842C16.2801 6.76842 16.41 6.63856 16.41 6.47835M16.1199 6.76842L16.41 6.47835M16.41 6.47835C16.41 6.31817 16.2803 6.18828 16.1199 6.18828M16.41 6.47835L16.1199 6.18828M16.1199 6.18828L8.06234 6.18845L16.1199 6.18828Z" fill="#F12679" stroke="#F12679" stroke-width="0.1"/>
<path d="M7.77227 3.85993L7.77227 3.85987C7.77227 3.69966 7.90213 3.5698 8.06233 3.5698L7.77227 3.85993ZM7.77227 3.85993C7.77247 4.01988 7.90209 4.14977 8.06234 4.14977H8.11234V4.14977M7.77227 3.85993L8.11234 4.14977M8.11234 4.14977H16.1199C16.2801 4.14977 16.41 4.0199 16.41 3.8597C16.41 3.69951 16.2803 3.56963 16.1199 3.56963L8.06234 3.5698L8.11234 4.14977Z" fill="#F12679" stroke="#F12679" stroke-width="0.1"/>
</g>
<defs>
<clipPath id="clip0_381_3034">
<rect width="20" height="20" fill="white"/>
</clipPath>
</defs>
</svg>
