<svg width="30" height="30" viewBox="0 0 30 30" fill="none" xmlns="http://www.w3.org/2000/svg">
<path d="M3.75 7.5V16.875" stroke="#EDA0BF" stroke-width="2" stroke-linecap="round" stroke-linejoin="round"/>
<path d="M6.35156 25.3126C7.2896 23.8738 8.57177 22.6918 10.0819 21.8736C11.5921 21.0554 13.2825 20.627 15 20.627C16.7175 20.627 18.4079 21.0554 19.9181 21.8736C21.4282 22.6918 22.7104 23.8738 23.6484 25.3126" stroke="#EDA0BF" stroke-width="2" stroke-linecap="round" stroke-linejoin="round"/>
<path d="M26.25 7.5L15 11.25L3.75 7.5L15 3.75L26.25 7.5Z" stroke="#EDA0BF" stroke-width="2" stroke-linecap="round" stroke-linejoin="round"/>
<path d="M19.8398 9.63281C20.6998 10.5719 21.268 11.741 21.4751 12.9974C21.6822 14.2538 21.5193 15.5433 21.0063 16.7088C20.4933 17.8742 19.6522 18.8653 18.5857 19.561C17.5193 20.2568 16.2734 20.6273 15 20.6273C13.7266 20.6273 12.4808 20.2568 11.4143 19.561C10.3478 18.8653 9.50675 17.8742 8.99371 16.7088C8.48067 15.5433 8.31778 14.2538 8.52489 12.9974C8.73201 11.741 9.30019 10.5719 10.1602 9.63281" stroke="#EDA0BF" stroke-width="2" stroke-linecap="round" stroke-linejoin="round"/>
</svg>
