<svg width="20" height="20" viewBox="0 0 20 20" fill="none" xmlns="http://www.w3.org/2000/svg">
<path d="M6.04688 15.7734L3.52344 17.8828C3.43238 17.9582 3.32183 18.0061 3.20461 18.0212C3.08738 18.0363 2.96829 18.0178 2.86115 17.9679C2.75401 17.918 2.66321 17.8387 2.59929 17.7393C2.53536 17.6399 2.50094 17.5244 2.5 17.4063V5C2.5 4.83424 2.56585 4.67527 2.68306 4.55806C2.80027 4.44085 2.95924 4.375 3.125 4.375H16.875C17.0408 4.375 17.1997 4.44085 17.3169 4.55806C17.4342 4.67527 17.5 4.83424 17.5 5V15C17.5 15.1658 17.4342 15.3247 17.3169 15.4419C17.1997 15.5592 17.0408 15.625 16.875 15.625H6.44531C6.29899 15.625 6.15756 15.6777 6.04688 15.7734V15.7734Z" stroke="#F12679" stroke-linecap="round" stroke-linejoin="round"/>
<path d="M10 10.9375C10.5178 10.9375 10.9375 10.5178 10.9375 10C10.9375 9.48223 10.5178 9.0625 10 9.0625C9.48223 9.0625 9.0625 9.48223 9.0625 10C9.0625 10.5178 9.48223 10.9375 10 10.9375Z" fill="#F12679"/>
<path d="M6.25 10.9375C6.76777 10.9375 7.1875 10.5178 7.1875 10C7.1875 9.48223 6.76777 9.0625 6.25 9.0625C5.73223 9.0625 5.3125 9.48223 5.3125 10C5.3125 10.5178 5.73223 10.9375 6.25 10.9375Z" fill="#F12679"/>
<path d="M13.75 10.9375C14.2678 10.9375 14.6875 10.5178 14.6875 10C14.6875 9.48223 14.2678 9.0625 13.75 9.0625C13.2322 9.0625 12.8125 9.48223 12.8125 10C12.8125 10.5178 13.2322 10.9375 13.75 10.9375Z" fill="#F12679"/>
</svg>
