<svg width="18" height="19" viewBox="0 0 18 19" fill="none" xmlns="http://www.w3.org/2000/svg">
<g clip-path="url(#clip0_488_1067)">
<path fill-rule="evenodd" clip-rule="evenodd" d="M2.39219 4.21655V15.6613C2.39219 16.46 2.70839 17.2262 3.27062 17.7912C3.83339 18.3556 4.59666 18.6731 5.39219 18.6731H12.5922C13.3877 18.6731 14.151 18.3556 14.7138 17.7912C15.276 17.2262 15.5922 16.46 15.5922 15.6613V4.21655H17.3922C17.7234 4.21655 17.9922 3.9467 17.9922 3.6142C17.9922 3.28169 17.7234 3.01184 17.3922 3.01184H0.592187C0.260981 3.01184 -0.0078125 3.28169 -0.0078125 3.6142C-0.0078125 3.9467 0.260981 4.21655 0.592187 4.21655H2.39219ZM14.3922 4.21655V15.6613C14.3922 16.1408 14.2025 16.6003 13.8648 16.9389C13.5275 17.278 13.0698 17.4684 12.5922 17.4684H5.39219C4.91459 17.4684 4.45684 17.278 4.1196 16.9389C3.78184 16.6003 3.59219 16.1407 3.59219 15.6613V4.21655H14.3922Z" fill="#F75252"/>
<path fill-rule="evenodd" clip-rule="evenodd" d="M5.99258 1.80713H11.9926C12.3238 1.80713 12.5926 1.53728 12.5926 1.20477C12.5926 0.872265 12.3238 0.602417 11.9926 0.602417H5.99258C5.66137 0.602417 5.39258 0.872265 5.39258 1.20477C5.39258 1.53728 5.66137 1.80713 5.99258 1.80713Z" fill="#F75252"/>
<path fill-rule="evenodd" clip-rule="evenodd" d="M6.5918 7.22833V14.4566C6.5918 14.7891 6.86059 15.0589 7.1918 15.0589C7.523 15.0589 7.7918 14.7891 7.7918 14.4566V7.22833C7.7918 6.89582 7.523 6.62598 7.1918 6.62598C6.86059 6.62598 6.5918 6.89582 6.5918 7.22833Z" fill="#F75252"/>
<path fill-rule="evenodd" clip-rule="evenodd" d="M10.1914 7.22833V14.4566C10.1914 14.7891 10.4602 15.0589 10.7914 15.0589C11.1226 15.0589 11.3914 14.7891 11.3914 14.4566V7.22833C11.3914 6.89582 11.1226 6.62598 10.7914 6.62598C10.4602 6.62598 10.1914 6.89582 10.1914 7.22833Z" fill="#F75252"/>
</g>
<defs>
<clipPath id="clip0_488_1067">
<rect width="18" height="19" fill="white"/>
</clipPath>
</defs>
</svg>
