<svg width="393" height="49" viewBox="0 0 393 49" fill="none" xmlns="http://www.w3.org/2000/svg">
<path d="M117.338 10.668C117.338 11.1758 117.213 11.6133 116.963 11.9805C116.717 12.3477 116.361 12.6289 115.896 12.8242C115.436 13.0195 114.885 13.1172 114.244 13.1172C113.932 13.1172 113.633 13.0996 113.348 13.0645C113.062 13.0293 112.793 12.9785 112.539 12.9121C112.289 12.8418 112.061 12.7578 111.854 12.6602V11.3359C112.201 11.4883 112.59 11.627 113.02 11.752C113.449 11.873 113.887 11.9336 114.332 11.9336C114.695 11.9336 114.996 11.8867 115.234 11.793C115.477 11.6953 115.656 11.5586 115.773 11.3828C115.891 11.2031 115.949 10.9941 115.949 10.7559C115.949 10.502 115.881 10.2871 115.744 10.1113C115.607 9.93555 115.4 9.77539 115.123 9.63086C114.85 9.48242 114.506 9.32422 114.092 9.15625C113.811 9.04297 113.541 8.91406 113.283 8.76953C113.029 8.625 112.803 8.45508 112.604 8.25977C112.404 8.06445 112.246 7.83398 112.129 7.56836C112.016 7.29883 111.959 6.98242 111.959 6.61914C111.959 6.13477 112.074 5.7207 112.305 5.37695C112.539 5.0332 112.867 4.76953 113.289 4.58594C113.715 4.40234 114.211 4.31055 114.777 4.31055C115.227 4.31055 115.648 4.35742 116.043 4.45117C116.441 4.54492 116.832 4.67773 117.215 4.84961L116.77 5.98047C116.418 5.83594 116.076 5.7207 115.744 5.63477C115.416 5.54883 115.08 5.50586 114.736 5.50586C114.439 5.50586 114.188 5.55078 113.98 5.64062C113.773 5.73047 113.615 5.85742 113.506 6.02148C113.4 6.18164 113.348 6.37305 113.348 6.5957C113.348 6.8457 113.408 7.05664 113.529 7.22852C113.654 7.39648 113.846 7.55078 114.104 7.69141C114.365 7.83203 114.701 7.98828 115.111 8.16016C115.584 8.35547 115.984 8.56055 116.312 8.77539C116.645 8.99023 116.898 9.24805 117.074 9.54883C117.25 9.8457 117.338 10.2188 117.338 10.668ZM121.434 6.39062C122.012 6.39062 122.508 6.50977 122.922 6.74805C123.336 6.98633 123.654 7.32422 123.877 7.76172C124.1 8.19922 124.211 8.72266 124.211 9.33203V10.0703H119.881C119.896 10.6992 120.064 11.1836 120.385 11.5234C120.709 11.8633 121.162 12.0332 121.744 12.0332C122.158 12.0332 122.529 11.9941 122.857 11.916C123.189 11.834 123.531 11.7148 123.883 11.5586V12.6777C123.559 12.8301 123.229 12.9414 122.893 13.0117C122.557 13.082 122.154 13.1172 121.686 13.1172C121.049 13.1172 120.488 12.9941 120.004 12.748C119.523 12.498 119.146 12.127 118.873 11.6348C118.604 11.1426 118.469 10.5312 118.469 9.80078C118.469 9.07422 118.592 8.45703 118.838 7.94922C119.084 7.44141 119.43 7.05469 119.875 6.78906C120.32 6.52344 120.84 6.39062 121.434 6.39062ZM121.434 7.42773C121 7.42773 120.648 7.56836 120.379 7.84961C120.113 8.13086 119.957 8.54297 119.91 9.08594H122.863C122.859 8.76172 122.805 8.47461 122.699 8.22461C122.598 7.97461 122.441 7.7793 122.23 7.63867C122.023 7.49805 121.758 7.42773 121.434 7.42773ZM127.146 13H125.764V3.88281H127.146V13ZM131.699 6.39062C132.277 6.39062 132.773 6.50977 133.188 6.74805C133.602 6.98633 133.92 7.32422 134.143 7.76172C134.365 8.19922 134.477 8.72266 134.477 9.33203V10.0703H130.146C130.162 10.6992 130.33 11.1836 130.65 11.5234C130.975 11.8633 131.428 12.0332 132.01 12.0332C132.424 12.0332 132.795 11.9941 133.123 11.916C133.455 11.834 133.797 11.7148 134.148 11.5586V12.6777C133.824 12.8301 133.494 12.9414 133.158 13.0117C132.822 13.082 132.42 13.1172 131.951 13.1172C131.314 13.1172 130.754 12.9941 130.27 12.748C129.789 12.498 129.412 12.127 129.139 11.6348C128.869 11.1426 128.734 10.5312 128.734 9.80078C128.734 9.07422 128.857 8.45703 129.104 7.94922C129.35 7.44141 129.695 7.05469 130.141 6.78906C130.586 6.52344 131.105 6.39062 131.699 6.39062ZM131.699 7.42773C131.266 7.42773 130.914 7.56836 130.645 7.84961C130.379 8.13086 130.223 8.54297 130.176 9.08594H133.129C133.125 8.76172 133.07 8.47461 132.965 8.22461C132.863 7.97461 132.707 7.7793 132.496 7.63867C132.289 7.49805 132.023 7.42773 131.699 7.42773ZM138.643 13.1172C138.029 13.1172 137.498 12.998 137.049 12.7598C136.6 12.5215 136.254 12.1562 136.012 11.6641C135.77 11.1719 135.648 10.5469 135.648 9.78906C135.648 9 135.781 8.35547 136.047 7.85547C136.312 7.35547 136.68 6.98633 137.148 6.74805C137.621 6.50977 138.162 6.39062 138.771 6.39062C139.158 6.39062 139.508 6.42969 139.82 6.50781C140.137 6.58203 140.404 6.67383 140.623 6.7832L140.213 7.88477C139.975 7.78711 139.73 7.70508 139.48 7.63867C139.23 7.57227 138.99 7.53906 138.76 7.53906C138.381 7.53906 138.064 7.62305 137.811 7.79102C137.561 7.95898 137.373 8.20898 137.248 8.54102C137.127 8.87305 137.066 9.28516 137.066 9.77734C137.066 10.2539 137.129 10.6562 137.254 10.9844C137.379 11.3086 137.564 11.5547 137.811 11.7227C138.057 11.8867 138.359 11.9688 138.719 11.9688C139.074 11.9688 139.393 11.9258 139.674 11.8398C139.955 11.7539 140.221 11.6426 140.471 11.5059V12.7012C140.225 12.8418 139.961 12.9453 139.68 13.0117C139.398 13.082 139.053 13.1172 138.643 13.1172ZM144.408 12.0039C144.588 12.0039 144.766 11.9883 144.941 11.957C145.117 11.9219 145.277 11.8809 145.422 11.834V12.877C145.27 12.9434 145.072 13 144.83 13.0469C144.588 13.0938 144.336 13.1172 144.074 13.1172C143.707 13.1172 143.377 13.0566 143.084 12.9355C142.791 12.8105 142.559 12.5977 142.387 12.2969C142.215 11.9961 142.129 11.5801 142.129 11.0488V7.5625H141.244V6.94727L142.193 6.46094L142.645 5.07227H143.512V6.51367H145.369V7.5625H143.512V11.0312C143.512 11.3594 143.594 11.6035 143.758 11.7637C143.922 11.9238 144.139 12.0039 144.408 12.0039ZM152.471 13.1172C151.857 13.1172 151.326 12.998 150.877 12.7598C150.428 12.5215 150.082 12.1562 149.84 11.6641C149.598 11.1719 149.477 10.5469 149.477 9.78906C149.477 9 149.609 8.35547 149.875 7.85547C150.141 7.35547 150.508 6.98633 150.977 6.74805C151.449 6.50977 151.99 6.39062 152.6 6.39062C152.986 6.39062 153.336 6.42969 153.648 6.50781C153.965 6.58203 154.232 6.67383 154.451 6.7832L154.041 7.88477C153.803 7.78711 153.559 7.70508 153.309 7.63867C153.059 7.57227 152.818 7.53906 152.588 7.53906C152.209 7.53906 151.893 7.62305 151.639 7.79102C151.389 7.95898 151.201 8.20898 151.076 8.54102C150.955 8.87305 150.895 9.28516 150.895 9.77734C150.895 10.2539 150.957 10.6562 151.082 10.9844C151.207 11.3086 151.393 11.5547 151.639 11.7227C151.885 11.8867 152.188 11.9688 152.547 11.9688C152.902 11.9688 153.221 11.9258 153.502 11.8398C153.783 11.7539 154.049 11.6426 154.299 11.5059V12.7012C154.053 12.8418 153.789 12.9453 153.508 13.0117C153.227 13.082 152.881 13.1172 152.471 13.1172ZM161.564 9.74219C161.564 10.2812 161.494 10.7598 161.354 11.1777C161.213 11.5957 161.008 11.9492 160.738 12.2383C160.469 12.5234 160.145 12.7422 159.766 12.8945C159.387 13.043 158.959 13.1172 158.482 13.1172C158.037 13.1172 157.629 13.043 157.258 12.8945C156.887 12.7422 156.564 12.5234 156.291 12.2383C156.021 11.9492 155.812 11.5957 155.664 11.1777C155.516 10.7598 155.441 10.2812 155.441 9.74219C155.441 9.02734 155.564 8.42188 155.811 7.92578C156.061 7.42578 156.416 7.04492 156.877 6.7832C157.338 6.52148 157.887 6.39062 158.523 6.39062C159.121 6.39062 159.648 6.52148 160.105 6.7832C160.562 7.04492 160.92 7.42578 161.178 7.92578C161.436 8.42578 161.564 9.03125 161.564 9.74219ZM156.859 9.74219C156.859 10.2148 156.916 10.6191 157.029 10.9551C157.146 11.291 157.326 11.5488 157.568 11.7285C157.811 11.9043 158.123 11.9922 158.506 11.9922C158.889 11.9922 159.201 11.9043 159.443 11.7285C159.686 11.5488 159.863 11.291 159.977 10.9551C160.09 10.6191 160.146 10.2148 160.146 9.74219C160.146 9.26953 160.09 8.86914 159.977 8.54102C159.863 8.20898 159.686 7.95703 159.443 7.78516C159.201 7.60938 158.887 7.52148 158.5 7.52148C157.93 7.52148 157.514 7.71289 157.252 8.0957C156.99 8.47852 156.859 9.02734 156.859 9.74219ZM168.801 6.51367V13H167.717L167.529 12.127H167.453C167.316 12.3496 167.143 12.5352 166.932 12.6836C166.721 12.8281 166.486 12.9355 166.229 13.0059C165.971 13.0801 165.699 13.1172 165.414 13.1172C164.926 13.1172 164.508 13.0352 164.16 12.8711C163.816 12.7031 163.553 12.4453 163.369 12.0977C163.186 11.75 163.094 11.3008 163.094 10.75V6.51367H164.477V10.4922C164.477 10.9961 164.578 11.373 164.781 11.623C164.988 11.873 165.309 11.998 165.742 11.998C166.16 11.998 166.492 11.9121 166.738 11.7402C166.984 11.5684 167.158 11.3145 167.26 10.9785C167.365 10.6426 167.418 10.2305 167.418 9.74219V6.51367H168.801ZM174.062 6.39062C174.172 6.39062 174.291 6.39648 174.42 6.4082C174.549 6.41992 174.66 6.43555 174.754 6.45508L174.625 7.74414C174.543 7.7207 174.441 7.70312 174.32 7.69141C174.203 7.67969 174.098 7.67383 174.004 7.67383C173.758 7.67383 173.523 7.71484 173.301 7.79688C173.078 7.875 172.881 7.99609 172.709 8.16016C172.537 8.32031 172.402 8.52148 172.305 8.76367C172.207 9.00586 172.158 9.28711 172.158 9.60742V13H170.775V6.51367H171.854L172.041 7.65625H172.105C172.234 7.42578 172.395 7.21484 172.586 7.02344C172.777 6.83203 172.996 6.67969 173.242 6.56641C173.492 6.44922 173.766 6.39062 174.062 6.39062ZM180.314 11.1484C180.314 11.5742 180.211 11.9336 180.004 12.2266C179.797 12.5195 179.494 12.7422 179.096 12.8945C178.701 13.043 178.217 13.1172 177.643 13.1172C177.189 13.1172 176.799 13.084 176.471 13.0176C176.146 12.9551 175.84 12.8574 175.551 12.7246V11.5352C175.859 11.6797 176.205 11.8047 176.588 11.9102C176.975 12.0156 177.34 12.0684 177.684 12.0684C178.137 12.0684 178.463 11.998 178.662 11.8574C178.861 11.7129 178.961 11.5215 178.961 11.2832C178.961 11.1426 178.92 11.0176 178.838 10.9082C178.76 10.7949 178.611 10.6797 178.393 10.5625C178.178 10.4414 177.861 10.2969 177.443 10.1289C177.033 9.96484 176.688 9.80078 176.406 9.63672C176.125 9.47266 175.912 9.27539 175.768 9.04492C175.623 8.81055 175.551 8.51172 175.551 8.14844C175.551 7.57422 175.777 7.13867 176.23 6.8418C176.688 6.54102 177.291 6.39062 178.041 6.39062C178.439 6.39062 178.814 6.43164 179.166 6.51367C179.521 6.5918 179.869 6.70703 180.209 6.85938L179.775 7.89648C179.482 7.76758 179.188 7.66211 178.891 7.58008C178.598 7.49414 178.299 7.45117 177.994 7.45117C177.639 7.45117 177.367 7.50586 177.18 7.61523C176.996 7.72461 176.904 7.88086 176.904 8.08398C176.904 8.23633 176.949 8.36523 177.039 8.4707C177.129 8.57617 177.283 8.68164 177.502 8.78711C177.725 8.89258 178.033 9.02344 178.428 9.17969C178.814 9.32812 179.148 9.48438 179.43 9.64844C179.715 9.80859 179.934 10.0059 180.086 10.2402C180.238 10.4746 180.314 10.7773 180.314 11.1484ZM184.387 6.39062C184.965 6.39062 185.461 6.50977 185.875 6.74805C186.289 6.98633 186.607 7.32422 186.83 7.76172C187.053 8.19922 187.164 8.72266 187.164 9.33203V10.0703H182.834C182.85 10.6992 183.018 11.1836 183.338 11.5234C183.662 11.8633 184.115 12.0332 184.697 12.0332C185.111 12.0332 185.482 11.9941 185.811 11.916C186.143 11.834 186.484 11.7148 186.836 11.5586V12.6777C186.512 12.8301 186.182 12.9414 185.846 13.0117C185.51 13.082 185.107 13.1172 184.639 13.1172C184.002 13.1172 183.441 12.9941 182.957 12.748C182.477 12.498 182.1 12.127 181.826 11.6348C181.557 11.1426 181.422 10.5312 181.422 9.80078C181.422 9.07422 181.545 8.45703 181.791 7.94922C182.037 7.44141 182.383 7.05469 182.828 6.78906C183.273 6.52344 183.793 6.39062 184.387 6.39062ZM184.387 7.42773C183.953 7.42773 183.602 7.56836 183.332 7.84961C183.066 8.13086 182.91 8.54297 182.863 9.08594H185.816C185.812 8.76172 185.758 8.47461 185.652 8.22461C185.551 7.97461 185.395 7.7793 185.184 7.63867C184.977 7.49805 184.711 7.42773 184.387 7.42773Z" fill="white"/>
<path d="M216.816 10.668C216.816 11.1758 216.691 11.6133 216.441 11.9805C216.195 12.3477 215.84 12.6289 215.375 12.8242C214.914 13.0195 214.363 13.1172 213.723 13.1172C213.41 13.1172 213.111 13.0996 212.826 13.0645C212.541 13.0293 212.271 12.9785 212.018 12.9121C211.768 12.8418 211.539 12.7578 211.332 12.6602V11.3359C211.68 11.4883 212.068 11.627 212.498 11.752C212.928 11.873 213.365 11.9336 213.811 11.9336C214.174 11.9336 214.475 11.8867 214.713 11.793C214.955 11.6953 215.135 11.5586 215.252 11.3828C215.369 11.2031 215.428 10.9941 215.428 10.7559C215.428 10.502 215.359 10.2871 215.223 10.1113C215.086 9.93555 214.879 9.77539 214.602 9.63086C214.328 9.48242 213.984 9.32422 213.57 9.15625C213.289 9.04297 213.02 8.91406 212.762 8.76953C212.508 8.625 212.281 8.45508 212.082 8.25977C211.883 8.06445 211.725 7.83398 211.607 7.56836C211.494 7.29883 211.438 6.98242 211.438 6.61914C211.438 6.13477 211.553 5.7207 211.783 5.37695C212.018 5.0332 212.346 4.76953 212.768 4.58594C213.193 4.40234 213.689 4.31055 214.256 4.31055C214.705 4.31055 215.127 4.35742 215.521 4.45117C215.92 4.54492 216.311 4.67773 216.693 4.84961L216.248 5.98047C215.896 5.83594 215.555 5.7207 215.223 5.63477C214.895 5.54883 214.559 5.50586 214.215 5.50586C213.918 5.50586 213.666 5.55078 213.459 5.64062C213.252 5.73047 213.094 5.85742 212.984 6.02148C212.879 6.18164 212.826 6.37305 212.826 6.5957C212.826 6.8457 212.887 7.05664 213.008 7.22852C213.133 7.39648 213.324 7.55078 213.582 7.69141C213.844 7.83203 214.18 7.98828 214.59 8.16016C215.062 8.35547 215.463 8.56055 215.791 8.77539C216.123 8.99023 216.377 9.24805 216.553 9.54883C216.729 9.8457 216.816 10.2188 216.816 10.668ZM220.912 6.39062C221.49 6.39062 221.986 6.50977 222.4 6.74805C222.814 6.98633 223.133 7.32422 223.355 7.76172C223.578 8.19922 223.689 8.72266 223.689 9.33203V10.0703H219.359C219.375 10.6992 219.543 11.1836 219.863 11.5234C220.188 11.8633 220.641 12.0332 221.223 12.0332C221.637 12.0332 222.008 11.9941 222.336 11.916C222.668 11.834 223.01 11.7148 223.361 11.5586V12.6777C223.037 12.8301 222.707 12.9414 222.371 13.0117C222.035 13.082 221.633 13.1172 221.164 13.1172C220.527 13.1172 219.967 12.9941 219.482 12.748C219.002 12.498 218.625 12.127 218.352 11.6348C218.082 11.1426 217.947 10.5312 217.947 9.80078C217.947 9.07422 218.07 8.45703 218.316 7.94922C218.562 7.44141 218.908 7.05469 219.354 6.78906C219.799 6.52344 220.318 6.39062 220.912 6.39062ZM220.912 7.42773C220.479 7.42773 220.127 7.56836 219.857 7.84961C219.592 8.13086 219.436 8.54297 219.389 9.08594H222.342C222.338 8.76172 222.283 8.47461 222.178 8.22461C222.076 7.97461 221.92 7.7793 221.709 7.63867C221.502 7.49805 221.236 7.42773 220.912 7.42773ZM226.625 13H225.242V3.88281H226.625V13ZM231.178 6.39062C231.756 6.39062 232.252 6.50977 232.666 6.74805C233.08 6.98633 233.398 7.32422 233.621 7.76172C233.844 8.19922 233.955 8.72266 233.955 9.33203V10.0703H229.625C229.641 10.6992 229.809 11.1836 230.129 11.5234C230.453 11.8633 230.906 12.0332 231.488 12.0332C231.902 12.0332 232.273 11.9941 232.602 11.916C232.934 11.834 233.275 11.7148 233.627 11.5586V12.6777C233.303 12.8301 232.973 12.9414 232.637 13.0117C232.301 13.082 231.898 13.1172 231.43 13.1172C230.793 13.1172 230.232 12.9941 229.748 12.748C229.268 12.498 228.891 12.127 228.617 11.6348C228.348 11.1426 228.213 10.5312 228.213 9.80078C228.213 9.07422 228.336 8.45703 228.582 7.94922C228.828 7.44141 229.174 7.05469 229.619 6.78906C230.064 6.52344 230.584 6.39062 231.178 6.39062ZM231.178 7.42773C230.744 7.42773 230.393 7.56836 230.123 7.84961C229.857 8.13086 229.701 8.54297 229.654 9.08594H232.607C232.604 8.76172 232.549 8.47461 232.443 8.22461C232.342 7.97461 232.186 7.7793 231.975 7.63867C231.768 7.49805 231.502 7.42773 231.178 7.42773ZM238.121 13.1172C237.508 13.1172 236.977 12.998 236.527 12.7598C236.078 12.5215 235.732 12.1562 235.49 11.6641C235.248 11.1719 235.127 10.5469 235.127 9.78906C235.127 9 235.26 8.35547 235.525 7.85547C235.791 7.35547 236.158 6.98633 236.627 6.74805C237.1 6.50977 237.641 6.39062 238.25 6.39062C238.637 6.39062 238.986 6.42969 239.299 6.50781C239.615 6.58203 239.883 6.67383 240.102 6.7832L239.691 7.88477C239.453 7.78711 239.209 7.70508 238.959 7.63867C238.709 7.57227 238.469 7.53906 238.238 7.53906C237.859 7.53906 237.543 7.62305 237.289 7.79102C237.039 7.95898 236.852 8.20898 236.727 8.54102C236.605 8.87305 236.545 9.28516 236.545 9.77734C236.545 10.2539 236.607 10.6562 236.732 10.9844C236.857 11.3086 237.043 11.5547 237.289 11.7227C237.535 11.8867 237.838 11.9688 238.197 11.9688C238.553 11.9688 238.871 11.9258 239.152 11.8398C239.434 11.7539 239.699 11.6426 239.949 11.5059V12.7012C239.703 12.8418 239.439 12.9453 239.158 13.0117C238.877 13.082 238.531 13.1172 238.121 13.1172ZM243.887 12.0039C244.066 12.0039 244.244 11.9883 244.42 11.957C244.596 11.9219 244.756 11.8809 244.9 11.834V12.877C244.748 12.9434 244.551 13 244.309 13.0469C244.066 13.0938 243.814 13.1172 243.553 13.1172C243.186 13.1172 242.855 13.0566 242.562 12.9355C242.27 12.8105 242.037 12.5977 241.865 12.2969C241.693 11.9961 241.607 11.5801 241.607 11.0488V7.5625H240.723V6.94727L241.672 6.46094L242.123 5.07227H242.99V6.51367H244.848V7.5625H242.99V11.0312C242.99 11.3594 243.072 11.6035 243.236 11.7637C243.4 11.9238 243.617 12.0039 243.887 12.0039ZM252.447 13H251.035V5.62891H248.527V4.43359H254.949V5.62891H252.447V13ZM261.863 9.74219C261.863 10.2812 261.793 10.7598 261.652 11.1777C261.512 11.5957 261.307 11.9492 261.037 12.2383C260.768 12.5234 260.443 12.7422 260.064 12.8945C259.686 13.043 259.258 13.1172 258.781 13.1172C258.336 13.1172 257.928 13.043 257.557 12.8945C257.186 12.7422 256.863 12.5234 256.59 12.2383C256.32 11.9492 256.111 11.5957 255.963 11.1777C255.814 10.7598 255.74 10.2812 255.74 9.74219C255.74 9.02734 255.863 8.42188 256.109 7.92578C256.359 7.42578 256.715 7.04492 257.176 6.7832C257.637 6.52148 258.186 6.39062 258.822 6.39062C259.42 6.39062 259.947 6.52148 260.404 6.7832C260.861 7.04492 261.219 7.42578 261.477 7.92578C261.734 8.42578 261.863 9.03125 261.863 9.74219ZM257.158 9.74219C257.158 10.2148 257.215 10.6191 257.328 10.9551C257.445 11.291 257.625 11.5488 257.867 11.7285C258.109 11.9043 258.422 11.9922 258.805 11.9922C259.188 11.9922 259.5 11.9043 259.742 11.7285C259.984 11.5488 260.162 11.291 260.275 10.9551C260.389 10.6191 260.445 10.2148 260.445 9.74219C260.445 9.26953 260.389 8.86914 260.275 8.54102C260.162 8.20898 259.984 7.95703 259.742 7.78516C259.5 7.60938 259.186 7.52148 258.799 7.52148C258.229 7.52148 257.812 7.71289 257.551 8.0957C257.289 8.47852 257.158 9.02734 257.158 9.74219ZM266.773 6.39062C267.543 6.39062 268.16 6.67188 268.625 7.23438C269.094 7.79688 269.328 8.63281 269.328 9.74219C269.328 10.4766 269.219 11.0957 269 11.5996C268.785 12.0996 268.482 12.4785 268.092 12.7363C267.705 12.9902 267.254 13.1172 266.738 13.1172C266.41 13.1172 266.125 13.0742 265.883 12.9883C265.641 12.9023 265.434 12.791 265.262 12.6543C265.09 12.5137 264.945 12.3613 264.828 12.1973H264.746C264.766 12.3535 264.783 12.5273 264.799 12.7188C264.818 12.9062 264.828 13.0781 264.828 13.2344V15.877H263.445V6.51367H264.57L264.764 7.41016H264.828C264.949 7.22656 265.096 7.05664 265.268 6.90039C265.443 6.74414 265.654 6.62109 265.9 6.53125C266.15 6.4375 266.441 6.39062 266.773 6.39062ZM266.404 7.51562C266.025 7.51562 265.721 7.5918 265.49 7.74414C265.264 7.89258 265.098 8.11719 264.992 8.41797C264.891 8.71875 264.836 9.0957 264.828 9.54883V9.74219C264.828 10.2227 264.877 10.6309 264.975 10.9668C265.076 11.2988 265.242 11.5527 265.473 11.7285C265.707 11.9004 266.023 11.9863 266.422 11.9863C266.758 11.9863 267.035 11.8945 267.254 11.7109C267.477 11.5273 267.643 11.2656 267.752 10.9258C267.861 10.5859 267.916 10.1855 267.916 9.72461C267.916 9.02539 267.791 8.48242 267.541 8.0957C267.295 7.70898 266.916 7.51562 266.404 7.51562ZM272.299 6.51367V13H270.922V6.51367H272.299ZM271.619 4.0293C271.83 4.0293 272.012 4.08594 272.164 4.19922C272.32 4.3125 272.398 4.50781 272.398 4.78516C272.398 5.05859 272.32 5.25391 272.164 5.37109C272.012 5.48438 271.83 5.54102 271.619 5.54102C271.4 5.54102 271.215 5.48438 271.062 5.37109C270.914 5.25391 270.84 5.05859 270.84 4.78516C270.84 4.50781 270.914 4.3125 271.062 4.19922C271.215 4.08594 271.4 4.0293 271.619 4.0293ZM276.887 13.1172C276.273 13.1172 275.742 12.998 275.293 12.7598C274.844 12.5215 274.498 12.1562 274.256 11.6641C274.014 11.1719 273.893 10.5469 273.893 9.78906C273.893 9 274.025 8.35547 274.291 7.85547C274.557 7.35547 274.924 6.98633 275.393 6.74805C275.865 6.50977 276.406 6.39062 277.016 6.39062C277.402 6.39062 277.752 6.42969 278.064 6.50781C278.381 6.58203 278.648 6.67383 278.867 6.7832L278.457 7.88477C278.219 7.78711 277.975 7.70508 277.725 7.63867C277.475 7.57227 277.234 7.53906 277.004 7.53906C276.625 7.53906 276.309 7.62305 276.055 7.79102C275.805 7.95898 275.617 8.20898 275.492 8.54102C275.371 8.87305 275.311 9.28516 275.311 9.77734C275.311 10.2539 275.373 10.6562 275.498 10.9844C275.623 11.3086 275.809 11.5547 276.055 11.7227C276.301 11.8867 276.604 11.9688 276.963 11.9688C277.318 11.9688 277.637 11.9258 277.918 11.8398C278.199 11.7539 278.465 11.6426 278.715 11.5059V12.7012C278.469 12.8418 278.205 12.9453 277.924 13.0117C277.643 13.082 277.297 13.1172 276.887 13.1172Z" fill="white"/>
<path opacity="0.7" d="M308.324 10.668C308.324 11.1758 308.199 11.6133 307.949 11.9805C307.703 12.3477 307.348 12.6289 306.883 12.8242C306.422 13.0195 305.871 13.1172 305.23 13.1172C304.918 13.1172 304.619 13.0996 304.334 13.0645C304.049 13.0293 303.779 12.9785 303.525 12.9121C303.275 12.8418 303.047 12.7578 302.84 12.6602V11.3359C303.188 11.4883 303.576 11.627 304.006 11.752C304.436 11.873 304.873 11.9336 305.318 11.9336C305.682 11.9336 305.982 11.8867 306.221 11.793C306.463 11.6953 306.643 11.5586 306.76 11.3828C306.877 11.2031 306.936 10.9941 306.936 10.7559C306.936 10.502 306.867 10.2871 306.73 10.1113C306.594 9.93555 306.387 9.77539 306.109 9.63086C305.836 9.48242 305.492 9.32422 305.078 9.15625C304.797 9.04297 304.527 8.91406 304.27 8.76953C304.016 8.625 303.789 8.45508 303.59 8.25977C303.391 8.06445 303.232 7.83398 303.115 7.56836C303.002 7.29883 302.945 6.98242 302.945 6.61914C302.945 6.13477 303.061 5.7207 303.291 5.37695C303.525 5.0332 303.854 4.76953 304.275 4.58594C304.701 4.40234 305.197 4.31055 305.764 4.31055C306.213 4.31055 306.635 4.35742 307.029 4.45117C307.428 4.54492 307.818 4.67773 308.201 4.84961L307.756 5.98047C307.404 5.83594 307.062 5.7207 306.73 5.63477C306.402 5.54883 306.066 5.50586 305.723 5.50586C305.426 5.50586 305.174 5.55078 304.967 5.64062C304.76 5.73047 304.602 5.85742 304.492 6.02148C304.387 6.18164 304.334 6.37305 304.334 6.5957C304.334 6.8457 304.395 7.05664 304.516 7.22852C304.641 7.39648 304.832 7.55078 305.09 7.69141C305.352 7.83203 305.688 7.98828 306.098 8.16016C306.57 8.35547 306.971 8.56055 307.299 8.77539C307.631 8.99023 307.885 9.24805 308.061 9.54883C308.236 9.8457 308.324 10.2188 308.324 10.668ZM312.42 6.39062C312.998 6.39062 313.494 6.50977 313.908 6.74805C314.322 6.98633 314.641 7.32422 314.863 7.76172C315.086 8.19922 315.197 8.72266 315.197 9.33203V10.0703H310.867C310.883 10.6992 311.051 11.1836 311.371 11.5234C311.695 11.8633 312.148 12.0332 312.73 12.0332C313.145 12.0332 313.516 11.9941 313.844 11.916C314.176 11.834 314.518 11.7148 314.869 11.5586V12.6777C314.545 12.8301 314.215 12.9414 313.879 13.0117C313.543 13.082 313.141 13.1172 312.672 13.1172C312.035 13.1172 311.475 12.9941 310.99 12.748C310.51 12.498 310.133 12.127 309.859 11.6348C309.59 11.1426 309.455 10.5312 309.455 9.80078C309.455 9.07422 309.578 8.45703 309.824 7.94922C310.07 7.44141 310.416 7.05469 310.861 6.78906C311.307 6.52344 311.826 6.39062 312.42 6.39062ZM312.42 7.42773C311.986 7.42773 311.635 7.56836 311.365 7.84961C311.1 8.13086 310.943 8.54297 310.896 9.08594H313.85C313.846 8.76172 313.791 8.47461 313.686 8.22461C313.584 7.97461 313.428 7.7793 313.217 7.63867C313.01 7.49805 312.744 7.42773 312.42 7.42773ZM318.133 13H316.75V3.88281H318.133V13ZM322.686 6.39062C323.264 6.39062 323.76 6.50977 324.174 6.74805C324.588 6.98633 324.906 7.32422 325.129 7.76172C325.352 8.19922 325.463 8.72266 325.463 9.33203V10.0703H321.133C321.148 10.6992 321.316 11.1836 321.637 11.5234C321.961 11.8633 322.414 12.0332 322.996 12.0332C323.41 12.0332 323.781 11.9941 324.109 11.916C324.441 11.834 324.783 11.7148 325.135 11.5586V12.6777C324.811 12.8301 324.48 12.9414 324.145 13.0117C323.809 13.082 323.406 13.1172 322.938 13.1172C322.301 13.1172 321.74 12.9941 321.256 12.748C320.775 12.498 320.398 12.127 320.125 11.6348C319.855 11.1426 319.721 10.5312 319.721 9.80078C319.721 9.07422 319.844 8.45703 320.09 7.94922C320.336 7.44141 320.682 7.05469 321.127 6.78906C321.572 6.52344 322.092 6.39062 322.686 6.39062ZM322.686 7.42773C322.252 7.42773 321.9 7.56836 321.631 7.84961C321.365 8.13086 321.209 8.54297 321.162 9.08594H324.115C324.111 8.76172 324.057 8.47461 323.951 8.22461C323.85 7.97461 323.693 7.7793 323.482 7.63867C323.275 7.49805 323.01 7.42773 322.686 7.42773ZM329.629 13.1172C329.016 13.1172 328.484 12.998 328.035 12.7598C327.586 12.5215 327.24 12.1562 326.998 11.6641C326.756 11.1719 326.635 10.5469 326.635 9.78906C326.635 9 326.768 8.35547 327.033 7.85547C327.299 7.35547 327.666 6.98633 328.135 6.74805C328.607 6.50977 329.148 6.39062 329.758 6.39062C330.145 6.39062 330.494 6.42969 330.807 6.50781C331.123 6.58203 331.391 6.67383 331.609 6.7832L331.199 7.88477C330.961 7.78711 330.717 7.70508 330.467 7.63867C330.217 7.57227 329.977 7.53906 329.746 7.53906C329.367 7.53906 329.051 7.62305 328.797 7.79102C328.547 7.95898 328.359 8.20898 328.234 8.54102C328.113 8.87305 328.053 9.28516 328.053 9.77734C328.053 10.2539 328.115 10.6562 328.24 10.9844C328.365 11.3086 328.551 11.5547 328.797 11.7227C329.043 11.8867 329.346 11.9688 329.705 11.9688C330.061 11.9688 330.379 11.9258 330.66 11.8398C330.941 11.7539 331.207 11.6426 331.457 11.5059V12.7012C331.211 12.8418 330.947 12.9453 330.666 13.0117C330.385 13.082 330.039 13.1172 329.629 13.1172ZM335.395 12.0039C335.574 12.0039 335.752 11.9883 335.928 11.957C336.104 11.9219 336.264 11.8809 336.408 11.834V12.877C336.256 12.9434 336.059 13 335.816 13.0469C335.574 13.0938 335.322 13.1172 335.061 13.1172C334.693 13.1172 334.363 13.0566 334.07 12.9355C333.777 12.8105 333.545 12.5977 333.373 12.2969C333.201 11.9961 333.115 11.5801 333.115 11.0488V7.5625H332.23V6.94727L333.18 6.46094L333.631 5.07227H334.498V6.51367H336.355V7.5625H334.498V11.0312C334.498 11.3594 334.58 11.6035 334.744 11.7637C334.908 11.9238 335.125 12.0039 335.395 12.0039ZM348.59 8.70508C348.59 9.37305 348.504 9.98242 348.332 10.5332C348.16 11.084 347.902 11.5547 347.559 11.9453C347.215 12.3359 346.781 12.6309 346.258 12.8301L348.297 15.0391H346.422L344.811 13.1113C344.771 13.1113 344.732 13.1113 344.693 13.1113C344.658 13.1152 344.623 13.1172 344.588 13.1172C343.904 13.1172 343.311 13.0117 342.807 12.8008C342.307 12.5898 341.891 12.2891 341.559 11.8984C341.23 11.5078 340.984 11.041 340.82 10.498C340.656 9.95508 340.574 9.35352 340.574 8.69336C340.574 7.81055 340.719 7.04102 341.008 6.38477C341.301 5.72461 341.744 5.21289 342.338 4.84961C342.936 4.48242 343.689 4.29883 344.6 4.29883C345.49 4.29883 346.23 4.48047 346.82 4.84375C347.41 5.20703 347.852 5.71875 348.145 6.37891C348.441 7.03516 348.59 7.81055 348.59 8.70508ZM342.051 8.70508C342.051 9.36523 342.141 9.9375 342.32 10.4219C342.5 10.9023 342.775 11.2734 343.146 11.5352C343.521 11.793 344.002 11.9219 344.588 11.9219C345.178 11.9219 345.658 11.793 346.029 11.5352C346.4 11.2734 346.674 10.9023 346.85 10.4219C347.025 9.9375 347.113 9.36523 347.113 8.70508C347.113 7.70117 346.912 6.91602 346.51 6.34961C346.111 5.7793 345.475 5.49414 344.6 5.49414C344.014 5.49414 343.531 5.62305 343.152 5.88086C342.777 6.13867 342.5 6.50781 342.32 6.98828C342.141 7.46484 342.051 8.03711 342.051 8.70508ZM355.943 6.51367V13H354.859L354.672 12.127H354.596C354.459 12.3496 354.285 12.5352 354.074 12.6836C353.863 12.8281 353.629 12.9355 353.371 13.0059C353.113 13.0801 352.842 13.1172 352.557 13.1172C352.068 13.1172 351.65 13.0352 351.303 12.8711C350.959 12.7031 350.695 12.4453 350.512 12.0977C350.328 11.75 350.236 11.3008 350.236 10.75V6.51367H351.619V10.4922C351.619 10.9961 351.721 11.373 351.924 11.623C352.131 11.873 352.451 11.998 352.885 11.998C353.303 11.998 353.635 11.9121 353.881 11.7402C354.127 11.5684 354.301 11.3145 354.402 10.9785C354.508 10.6426 354.561 10.2305 354.561 9.74219V6.51367H355.943ZM360.502 6.39062C361.08 6.39062 361.576 6.50977 361.99 6.74805C362.404 6.98633 362.723 7.32422 362.945 7.76172C363.168 8.19922 363.279 8.72266 363.279 9.33203V10.0703H358.949C358.965 10.6992 359.133 11.1836 359.453 11.5234C359.777 11.8633 360.23 12.0332 360.812 12.0332C361.227 12.0332 361.598 11.9941 361.926 11.916C362.258 11.834 362.6 11.7148 362.951 11.5586V12.6777C362.627 12.8301 362.297 12.9414 361.961 13.0117C361.625 13.082 361.223 13.1172 360.754 13.1172C360.117 13.1172 359.557 12.9941 359.072 12.748C358.592 12.498 358.215 12.127 357.941 11.6348C357.672 11.1426 357.537 10.5312 357.537 9.80078C357.537 9.07422 357.66 8.45703 357.906 7.94922C358.152 7.44141 358.498 7.05469 358.943 6.78906C359.389 6.52344 359.908 6.39062 360.502 6.39062ZM360.502 7.42773C360.068 7.42773 359.717 7.56836 359.447 7.84961C359.182 8.13086 359.025 8.54297 358.979 9.08594H361.932C361.928 8.76172 361.873 8.47461 361.768 8.22461C361.666 7.97461 361.51 7.7793 361.299 7.63867C361.092 7.49805 360.826 7.42773 360.502 7.42773ZM369.191 11.1484C369.191 11.5742 369.088 11.9336 368.881 12.2266C368.674 12.5195 368.371 12.7422 367.973 12.8945C367.578 13.043 367.094 13.1172 366.52 13.1172C366.066 13.1172 365.676 13.084 365.348 13.0176C365.023 12.9551 364.717 12.8574 364.428 12.7246V11.5352C364.736 11.6797 365.082 11.8047 365.465 11.9102C365.852 12.0156 366.217 12.0684 366.561 12.0684C367.014 12.0684 367.34 11.998 367.539 11.8574C367.738 11.7129 367.838 11.5215 367.838 11.2832C367.838 11.1426 367.797 11.0176 367.715 10.9082C367.637 10.7949 367.488 10.6797 367.27 10.5625C367.055 10.4414 366.738 10.2969 366.32 10.1289C365.91 9.96484 365.564 9.80078 365.283 9.63672C365.002 9.47266 364.789 9.27539 364.645 9.04492C364.5 8.81055 364.428 8.51172 364.428 8.14844C364.428 7.57422 364.654 7.13867 365.107 6.8418C365.564 6.54102 366.168 6.39062 366.918 6.39062C367.316 6.39062 367.691 6.43164 368.043 6.51367C368.398 6.5918 368.746 6.70703 369.086 6.85938L368.652 7.89648C368.359 7.76758 368.064 7.66211 367.768 7.58008C367.475 7.49414 367.176 7.45117 366.871 7.45117C366.516 7.45117 366.244 7.50586 366.057 7.61523C365.873 7.72461 365.781 7.88086 365.781 8.08398C365.781 8.23633 365.826 8.36523 365.916 8.4707C366.006 8.57617 366.16 8.68164 366.379 8.78711C366.602 8.89258 366.91 9.02344 367.305 9.17969C367.691 9.32812 368.025 9.48438 368.307 9.64844C368.592 9.80859 368.811 10.0059 368.963 10.2402C369.115 10.4746 369.191 10.7773 369.191 11.1484ZM373.094 12.0039C373.273 12.0039 373.451 11.9883 373.627 11.957C373.803 11.9219 373.963 11.8809 374.107 11.834V12.877C373.955 12.9434 373.758 13 373.516 13.0469C373.273 13.0938 373.021 13.1172 372.76 13.1172C372.393 13.1172 372.062 13.0566 371.77 12.9355C371.477 12.8105 371.244 12.5977 371.072 12.2969C370.9 11.9961 370.814 11.5801 370.814 11.0488V7.5625H369.93V6.94727L370.879 6.46094L371.33 5.07227H372.197V6.51367H374.055V7.5625H372.197V11.0312C372.197 11.3594 372.279 11.6035 372.443 11.7637C372.607 11.9238 372.824 12.0039 373.094 12.0039ZM376.803 6.51367V13H375.426V6.51367H376.803ZM376.123 4.0293C376.334 4.0293 376.516 4.08594 376.668 4.19922C376.824 4.3125 376.902 4.50781 376.902 4.78516C376.902 5.05859 376.824 5.25391 376.668 5.37109C376.516 5.48438 376.334 5.54102 376.123 5.54102C375.904 5.54102 375.719 5.48438 375.566 5.37109C375.418 5.25391 375.344 5.05859 375.344 4.78516C375.344 4.50781 375.418 4.3125 375.566 4.19922C375.719 4.08594 375.904 4.0293 376.123 4.0293ZM384.52 9.74219C384.52 10.2812 384.449 10.7598 384.309 11.1777C384.168 11.5957 383.963 11.9492 383.693 12.2383C383.424 12.5234 383.1 12.7422 382.721 12.8945C382.342 13.043 381.914 13.1172 381.438 13.1172C380.992 13.1172 380.584 13.043 380.213 12.8945C379.842 12.7422 379.52 12.5234 379.246 12.2383C378.977 11.9492 378.768 11.5957 378.619 11.1777C378.471 10.7598 378.396 10.2812 378.396 9.74219C378.396 9.02734 378.52 8.42188 378.766 7.92578C379.016 7.42578 379.371 7.04492 379.832 6.7832C380.293 6.52148 380.842 6.39062 381.479 6.39062C382.076 6.39062 382.604 6.52148 383.061 6.7832C383.518 7.04492 383.875 7.42578 384.133 7.92578C384.391 8.42578 384.52 9.03125 384.52 9.74219ZM379.814 9.74219C379.814 10.2148 379.871 10.6191 379.984 10.9551C380.102 11.291 380.281 11.5488 380.523 11.7285C380.766 11.9043 381.078 11.9922 381.461 11.9922C381.844 11.9922 382.156 11.9043 382.398 11.7285C382.641 11.5488 382.818 11.291 382.932 10.9551C383.045 10.6191 383.102 10.2148 383.102 9.74219C383.102 9.26953 383.045 8.86914 382.932 8.54102C382.818 8.20898 382.641 7.95703 382.398 7.78516C382.156 7.60938 381.842 7.52148 381.455 7.52148C380.885 7.52148 380.469 7.71289 380.207 8.0957C379.945 8.47852 379.814 9.02734 379.814 9.74219ZM389.482 6.39062C390.213 6.39062 390.781 6.58008 391.188 6.95898C391.598 7.33398 391.803 7.9375 391.803 8.76953V13H390.426V9.02734C390.426 8.52344 390.322 8.14648 390.115 7.89648C389.908 7.64258 389.588 7.51562 389.154 7.51562C388.525 7.51562 388.088 7.70898 387.842 8.0957C387.6 8.48242 387.479 9.04297 387.479 9.77734V13H386.102V6.51367H387.174L387.367 7.39258H387.443C387.584 7.16602 387.758 6.98047 387.965 6.83594C388.176 6.6875 388.41 6.57617 388.668 6.50195C388.93 6.42773 389.201 6.39062 389.482 6.39062Z" fill="#F2F2F2"/>
<path d="M7.97461 10.668C7.97461 11.1758 7.84961 11.6133 7.59961 11.9805C7.35352 12.3477 6.99805 12.6289 6.5332 12.8242C6.07227 13.0195 5.52148 13.1172 4.88086 13.1172C4.56836 13.1172 4.26953 13.0996 3.98438 13.0645C3.69922 13.0293 3.42969 12.9785 3.17578 12.9121C2.92578 12.8418 2.69727 12.7578 2.49023 12.6602V11.3359C2.83789 11.4883 3.22656 11.627 3.65625 11.752C4.08594 11.873 4.52344 11.9336 4.96875 11.9336C5.33203 11.9336 5.63281 11.8867 5.87109 11.793C6.11328 11.6953 6.29297 11.5586 6.41016 11.3828C6.52734 11.2031 6.58594 10.9941 6.58594 10.7559C6.58594 10.502 6.51758 10.2871 6.38086 10.1113C6.24414 9.93555 6.03711 9.77539 5.75977 9.63086C5.48633 9.48242 5.14258 9.32422 4.72852 9.15625C4.44727 9.04297 4.17773 8.91406 3.91992 8.76953C3.66602 8.625 3.43945 8.45508 3.24023 8.25977C3.04102 8.06445 2.88281 7.83398 2.76562 7.56836C2.65234 7.29883 2.5957 6.98242 2.5957 6.61914C2.5957 6.13477 2.71094 5.7207 2.94141 5.37695C3.17578 5.0332 3.50391 4.76953 3.92578 4.58594C4.35156 4.40234 4.84766 4.31055 5.41406 4.31055C5.86328 4.31055 6.28516 4.35742 6.67969 4.45117C7.07812 4.54492 7.46875 4.67773 7.85156 4.84961L7.40625 5.98047C7.05469 5.83594 6.71289 5.7207 6.38086 5.63477C6.05273 5.54883 5.7168 5.50586 5.37305 5.50586C5.07617 5.50586 4.82422 5.55078 4.61719 5.64062C4.41016 5.73047 4.25195 5.85742 4.14258 6.02148C4.03711 6.18164 3.98438 6.37305 3.98438 6.5957C3.98438 6.8457 4.04492 7.05664 4.16602 7.22852C4.29102 7.39648 4.48242 7.55078 4.74023 7.69141C5.00195 7.83203 5.33789 7.98828 5.74805 8.16016C6.2207 8.35547 6.62109 8.56055 6.94922 8.77539C7.28125 8.99023 7.53516 9.24805 7.71094 9.54883C7.88672 9.8457 7.97461 10.2188 7.97461 10.668ZM12.0703 6.39062C12.6484 6.39062 13.1445 6.50977 13.5586 6.74805C13.9727 6.98633 14.291 7.32422 14.5137 7.76172C14.7363 8.19922 14.8477 8.72266 14.8477 9.33203V10.0703H10.5176C10.5332 10.6992 10.7012 11.1836 11.0215 11.5234C11.3457 11.8633 11.7988 12.0332 12.3809 12.0332C12.7949 12.0332 13.166 11.9941 13.4941 11.916C13.8262 11.834 14.168 11.7148 14.5195 11.5586V12.6777C14.1953 12.8301 13.8652 12.9414 13.5293 13.0117C13.1934 13.082 12.791 13.1172 12.3223 13.1172C11.6855 13.1172 11.125 12.9941 10.6406 12.748C10.1602 12.498 9.7832 12.127 9.50977 11.6348C9.24023 11.1426 9.10547 10.5312 9.10547 9.80078C9.10547 9.07422 9.22852 8.45703 9.47461 7.94922C9.7207 7.44141 10.0664 7.05469 10.5117 6.78906C10.957 6.52344 11.4766 6.39062 12.0703 6.39062ZM12.0703 7.42773C11.6367 7.42773 11.2852 7.56836 11.0156 7.84961C10.75 8.13086 10.5938 8.54297 10.5469 9.08594H13.5C13.4961 8.76172 13.4414 8.47461 13.3359 8.22461C13.2344 7.97461 13.0781 7.7793 12.8672 7.63867C12.6602 7.49805 12.3945 7.42773 12.0703 7.42773ZM17.7832 13H16.4004V3.88281H17.7832V13ZM22.3359 6.39062C22.9141 6.39062 23.4102 6.50977 23.8242 6.74805C24.2383 6.98633 24.5566 7.32422 24.7793 7.76172C25.002 8.19922 25.1133 8.72266 25.1133 9.33203V10.0703H20.7832C20.7988 10.6992 20.9668 11.1836 21.2871 11.5234C21.6113 11.8633 22.0645 12.0332 22.6465 12.0332C23.0605 12.0332 23.4316 11.9941 23.7598 11.916C24.0918 11.834 24.4336 11.7148 24.7852 11.5586V12.6777C24.4609 12.8301 24.1309 12.9414 23.7949 13.0117C23.459 13.082 23.0566 13.1172 22.5879 13.1172C21.9512 13.1172 21.3906 12.9941 20.9062 12.748C20.4258 12.498 20.0488 12.127 19.7754 11.6348C19.5059 11.1426 19.3711 10.5312 19.3711 9.80078C19.3711 9.07422 19.4941 8.45703 19.7402 7.94922C19.9863 7.44141 20.332 7.05469 20.7773 6.78906C21.2227 6.52344 21.7422 6.39062 22.3359 6.39062ZM22.3359 7.42773C21.9023 7.42773 21.5508 7.56836 21.2812 7.84961C21.0156 8.13086 20.8594 8.54297 20.8125 9.08594H23.7656C23.7617 8.76172 23.707 8.47461 23.6016 8.22461C23.5 7.97461 23.3438 7.7793 23.1328 7.63867C22.9258 7.49805 22.6602 7.42773 22.3359 7.42773ZM29.2793 13.1172C28.666 13.1172 28.1348 12.998 27.6855 12.7598C27.2363 12.5215 26.8906 12.1562 26.6484 11.6641C26.4062 11.1719 26.2852 10.5469 26.2852 9.78906C26.2852 9 26.418 8.35547 26.6836 7.85547C26.9492 7.35547 27.3164 6.98633 27.7852 6.74805C28.2578 6.50977 28.7988 6.39062 29.4082 6.39062C29.7949 6.39062 30.1445 6.42969 30.457 6.50781C30.7734 6.58203 31.041 6.67383 31.2598 6.7832L30.8496 7.88477C30.6113 7.78711 30.3672 7.70508 30.1172 7.63867C29.8672 7.57227 29.627 7.53906 29.3965 7.53906C29.0176 7.53906 28.7012 7.62305 28.4473 7.79102C28.1973 7.95898 28.0098 8.20898 27.8848 8.54102C27.7637 8.87305 27.7031 9.28516 27.7031 9.77734C27.7031 10.2539 27.7656 10.6562 27.8906 10.9844C28.0156 11.3086 28.2012 11.5547 28.4473 11.7227C28.6934 11.8867 28.9961 11.9688 29.3555 11.9688C29.7109 11.9688 30.0293 11.9258 30.3105 11.8398C30.5918 11.7539 30.8574 11.6426 31.1074 11.5059V12.7012C30.8613 12.8418 30.5977 12.9453 30.3164 13.0117C30.0352 13.082 29.6895 13.1172 29.2793 13.1172ZM35.0449 12.0039C35.2246 12.0039 35.4023 11.9883 35.5781 11.957C35.7539 11.9219 35.9141 11.8809 36.0586 11.834V12.877C35.9062 12.9434 35.709 13 35.4668 13.0469C35.2246 13.0938 34.9727 13.1172 34.7109 13.1172C34.3438 13.1172 34.0137 13.0566 33.7207 12.9355C33.4277 12.8105 33.1953 12.5977 33.0234 12.2969C32.8516 11.9961 32.7656 11.5801 32.7656 11.0488V7.5625H31.8809V6.94727L32.8301 6.46094L33.2812 5.07227H34.1484V6.51367H36.0059V7.5625H34.1484V11.0312C34.1484 11.3594 34.2305 11.6035 34.3945 11.7637C34.5586 11.9238 34.7754 12.0039 35.0449 12.0039ZM45.5801 10.668C45.5801 11.1758 45.4551 11.6133 45.2051 11.9805C44.959 12.3477 44.6035 12.6289 44.1387 12.8242C43.6777 13.0195 43.127 13.1172 42.4863 13.1172C42.1738 13.1172 41.875 13.0996 41.5898 13.0645C41.3047 13.0293 41.0352 12.9785 40.7812 12.9121C40.5312 12.8418 40.3027 12.7578 40.0957 12.6602V11.3359C40.4434 11.4883 40.832 11.627 41.2617 11.752C41.6914 11.873 42.1289 11.9336 42.5742 11.9336C42.9375 11.9336 43.2383 11.8867 43.4766 11.793C43.7188 11.6953 43.8984 11.5586 44.0156 11.3828C44.1328 11.2031 44.1914 10.9941 44.1914 10.7559C44.1914 10.502 44.123 10.2871 43.9863 10.1113C43.8496 9.93555 43.6426 9.77539 43.3652 9.63086C43.0918 9.48242 42.748 9.32422 42.334 9.15625C42.0527 9.04297 41.7832 8.91406 41.5254 8.76953C41.2715 8.625 41.0449 8.45508 40.8457 8.25977C40.6465 8.06445 40.4883 7.83398 40.3711 7.56836C40.2578 7.29883 40.2012 6.98242 40.2012 6.61914C40.2012 6.13477 40.3164 5.7207 40.5469 5.37695C40.7812 5.0332 41.1094 4.76953 41.5312 4.58594C41.957 4.40234 42.4531 4.31055 43.0195 4.31055C43.4688 4.31055 43.8906 4.35742 44.2852 4.45117C44.6836 4.54492 45.0742 4.67773 45.457 4.84961L45.0117 5.98047C44.6602 5.83594 44.3184 5.7207 43.9863 5.63477C43.6582 5.54883 43.3223 5.50586 42.9785 5.50586C42.6816 5.50586 42.4297 5.55078 42.2227 5.64062C42.0156 5.73047 41.8574 5.85742 41.748 6.02148C41.6426 6.18164 41.5898 6.37305 41.5898 6.5957C41.5898 6.8457 41.6504 7.05664 41.7715 7.22852C41.8965 7.39648 42.0879 7.55078 42.3457 7.69141C42.6074 7.83203 42.9434 7.98828 43.3535 8.16016C43.8262 8.35547 44.2266 8.56055 44.5547 8.77539C44.8867 8.99023 45.1406 9.24805 45.3164 9.54883C45.4922 9.8457 45.5801 10.2188 45.5801 10.668ZM49.5059 12.0039C49.6855 12.0039 49.8633 11.9883 50.0391 11.957C50.2148 11.9219 50.375 11.8809 50.5195 11.834V12.877C50.3672 12.9434 50.1699 13 49.9277 13.0469C49.6855 13.0938 49.4336 13.1172 49.1719 13.1172C48.8047 13.1172 48.4746 13.0566 48.1816 12.9355C47.8887 12.8105 47.6562 12.5977 47.4844 12.2969C47.3125 11.9961 47.2266 11.5801 47.2266 11.0488V7.5625H46.3418V6.94727L47.291 6.46094L47.7422 5.07227H48.6094V6.51367H50.4668V7.5625H48.6094V11.0312C48.6094 11.3594 48.6914 11.6035 48.8555 11.7637C49.0195 11.9238 49.2363 12.0039 49.5059 12.0039ZM57.4922 6.51367V13H56.4082L56.2207 12.127H56.1445C56.0078 12.3496 55.834 12.5352 55.623 12.6836C55.4121 12.8281 55.1777 12.9355 54.9199 13.0059C54.6621 13.0801 54.3906 13.1172 54.1055 13.1172C53.6172 13.1172 53.1992 13.0352 52.8516 12.8711C52.5078 12.7031 52.2441 12.4453 52.0605 12.0977C51.877 11.75 51.7852 11.3008 51.7852 10.75V6.51367H53.168V10.4922C53.168 10.9961 53.2695 11.373 53.4727 11.623C53.6797 11.873 54 11.998 54.4336 11.998C54.8516 11.998 55.1836 11.9121 55.4297 11.7402C55.6758 11.5684 55.8496 11.3145 55.9512 10.9785C56.0566 10.6426 56.1094 10.2305 56.1094 9.74219V6.51367H57.4922ZM61.6465 13.1172C60.873 13.1172 60.252 12.8359 59.7832 12.2734C59.3184 11.707 59.0859 10.873 59.0859 9.77148C59.0859 8.6582 59.3223 7.81641 59.7949 7.24609C60.2715 6.67578 60.8984 6.39062 61.6758 6.39062C62.0039 6.39062 62.291 6.43555 62.5371 6.52539C62.7832 6.61133 62.9941 6.72852 63.1699 6.87695C63.3496 7.02539 63.502 7.19141 63.627 7.375H63.6914C63.6719 7.25391 63.6484 7.08008 63.6211 6.85352C63.5977 6.62305 63.5859 6.41016 63.5859 6.21484V3.88281H64.9688V13H63.8906L63.6445 12.1152H63.5859C63.4688 12.3027 63.3203 12.4727 63.1406 12.625C62.9648 12.7734 62.7539 12.8926 62.5078 12.9824C62.2656 13.0723 61.9785 13.1172 61.6465 13.1172ZM62.0332 11.998C62.623 11.998 63.0391 11.8281 63.2812 11.4883C63.5234 11.1484 63.6484 10.6387 63.6562 9.95898V9.77734C63.6562 9.05078 63.5391 8.49414 63.3047 8.10742C63.0703 7.7168 62.6426 7.52148 62.0215 7.52148C61.5254 7.52148 61.1465 7.72266 60.8848 8.125C60.627 8.52344 60.498 9.08008 60.498 9.79492C60.498 10.5098 60.627 11.0566 60.8848 11.4355C61.1465 11.8105 61.5293 11.998 62.0332 11.998ZM69.5273 6.39062C70.1055 6.39062 70.6016 6.50977 71.0156 6.74805C71.4297 6.98633 71.748 7.32422 71.9707 7.76172C72.1934 8.19922 72.3047 8.72266 72.3047 9.33203V10.0703H67.9746C67.9902 10.6992 68.1582 11.1836 68.4785 11.5234C68.8027 11.8633 69.2559 12.0332 69.8379 12.0332C70.252 12.0332 70.623 11.9941 70.9512 11.916C71.2832 11.834 71.625 11.7148 71.9766 11.5586V12.6777C71.6523 12.8301 71.3223 12.9414 70.9863 13.0117C70.6504 13.082 70.248 13.1172 69.7793 13.1172C69.1426 13.1172 68.582 12.9941 68.0977 12.748C67.6172 12.498 67.2402 12.127 66.9668 11.6348C66.6973 11.1426 66.5625 10.5312 66.5625 9.80078C66.5625 9.07422 66.6855 8.45703 66.9316 7.94922C67.1777 7.44141 67.5234 7.05469 67.9688 6.78906C68.4141 6.52344 68.9336 6.39062 69.5273 6.39062ZM69.5273 7.42773C69.0938 7.42773 68.7422 7.56836 68.4727 7.84961C68.207 8.13086 68.0508 8.54297 68.0039 9.08594H70.957C70.9531 8.76172 70.8984 8.47461 70.793 8.22461C70.6914 7.97461 70.5352 7.7793 70.3242 7.63867C70.1172 7.49805 69.8516 7.42773 69.5273 7.42773ZM77.2383 6.39062C77.9688 6.39062 78.5371 6.58008 78.9434 6.95898C79.3535 7.33398 79.5586 7.9375 79.5586 8.76953V13H78.1816V9.02734C78.1816 8.52344 78.0781 8.14648 77.8711 7.89648C77.6641 7.64258 77.3438 7.51562 76.9102 7.51562C76.2812 7.51562 75.8438 7.70898 75.5977 8.0957C75.3555 8.48242 75.2344 9.04297 75.2344 9.77734V13H73.8574V6.51367H74.9297L75.123 7.39258H75.1992C75.3398 7.16602 75.5137 6.98047 75.7207 6.83594C75.9316 6.6875 76.166 6.57617 76.4238 6.50195C76.6855 6.42773 76.957 6.39062 77.2383 6.39062ZM83.9004 12.0039C84.0801 12.0039 84.2578 11.9883 84.4336 11.957C84.6094 11.9219 84.7695 11.8809 84.9141 11.834V12.877C84.7617 12.9434 84.5645 13 84.3223 13.0469C84.0801 13.0938 83.8281 13.1172 83.5664 13.1172C83.1992 13.1172 82.8691 13.0566 82.5762 12.9355C82.2832 12.8105 82.0508 12.5977 81.8789 12.2969C81.707 11.9961 81.6211 11.5801 81.6211 11.0488V7.5625H80.7363V6.94727L81.6855 6.46094L82.1367 5.07227H83.0039V6.51367H84.8613V7.5625H83.0039V11.0312C83.0039 11.3594 83.0859 11.6035 83.25 11.7637C83.4141 11.9238 83.6309 12.0039 83.9004 12.0039ZM90.5918 11.1484C90.5918 11.5742 90.4883 11.9336 90.2812 12.2266C90.0742 12.5195 89.7715 12.7422 89.373 12.8945C88.9785 13.043 88.4941 13.1172 87.9199 13.1172C87.4668 13.1172 87.0762 13.084 86.748 13.0176C86.4238 12.9551 86.1172 12.8574 85.8281 12.7246V11.5352C86.1367 11.6797 86.4824 11.8047 86.8652 11.9102C87.252 12.0156 87.6172 12.0684 87.9609 12.0684C88.4141 12.0684 88.7402 11.998 88.9395 11.8574C89.1387 11.7129 89.2383 11.5215 89.2383 11.2832C89.2383 11.1426 89.1973 11.0176 89.1152 10.9082C89.0371 10.7949 88.8887 10.6797 88.6699 10.5625C88.4551 10.4414 88.1387 10.2969 87.7207 10.1289C87.3105 9.96484 86.9648 9.80078 86.6836 9.63672C86.4023 9.47266 86.1895 9.27539 86.0449 9.04492C85.9004 8.81055 85.8281 8.51172 85.8281 8.14844C85.8281 7.57422 86.0547 7.13867 86.5078 6.8418C86.9648 6.54102 87.5684 6.39062 88.3184 6.39062C88.7168 6.39062 89.0918 6.43164 89.4434 6.51367C89.7988 6.5918 90.1465 6.70703 90.4863 6.85938L90.0527 7.89648C89.7598 7.76758 89.4648 7.66211 89.168 7.58008C88.875 7.49414 88.5762 7.45117 88.2715 7.45117C87.916 7.45117 87.6445 7.50586 87.457 7.61523C87.2734 7.72461 87.1816 7.88086 87.1816 8.08398C87.1816 8.23633 87.2266 8.36523 87.3164 8.4707C87.4062 8.57617 87.5605 8.68164 87.7793 8.78711C88.002 8.89258 88.3105 9.02344 88.7051 9.17969C89.0918 9.32812 89.4258 9.48438 89.707 9.64844C89.9922 9.80859 90.2109 10.0059 90.3633 10.2402C90.5156 10.4746 90.5918 10.7773 90.5918 11.1484Z" fill="white"/>
<rect opacity="0.7" x="49" y="40" width="300" height="2" fill="white"/>
<rect x="49" y="40" width="190" height="2" fill="white"/>
<circle cx="245" cy="41" r="7" fill="white" stroke="white" stroke-width="2"/>
<circle cx="345" cy="41" r="8" fill="#F12679"/>
<circle cx="345" cy="41" r="7" stroke="#F2F2F2" stroke-opacity="0.7" stroke-width="2"/>
<circle cx="245" cy="41" r="5" fill="white" stroke="#F12679" stroke-width="2"/>
</svg>
