<svg width="391" height="50" viewBox="0 0 391 50" fill="none" xmlns="http://www.w3.org/2000/svg">
<path opacity="0.7" d="M118.033 11.7207C118.033 12.2285 117.906 12.6621 117.652 13.0215C117.402 13.377 117.051 13.6484 116.598 13.8359C116.145 14.0234 115.611 14.1172 114.998 14.1172C114.674 14.1172 114.367 14.1016 114.078 14.0703C113.789 14.0391 113.523 13.9941 113.281 13.9355C113.039 13.877 112.826 13.8047 112.643 13.7188V12.7637C112.936 12.8848 113.293 12.998 113.715 13.1035C114.137 13.2051 114.578 13.2559 115.039 13.2559C115.469 13.2559 115.832 13.1992 116.129 13.0859C116.426 12.9688 116.65 12.8027 116.803 12.5879C116.959 12.3691 117.037 12.1074 117.037 11.8027C117.037 11.5098 116.973 11.2656 116.844 11.0703C116.715 10.8711 116.5 10.6914 116.199 10.5312C115.902 10.3672 115.496 10.1934 114.98 10.0098C114.617 9.88086 114.297 9.74023 114.02 9.58789C113.742 9.43164 113.51 9.25586 113.322 9.06055C113.135 8.86523 112.992 8.63867 112.895 8.38086C112.801 8.12305 112.754 7.82812 112.754 7.49609C112.754 7.03906 112.869 6.64844 113.1 6.32422C113.334 5.99609 113.656 5.74609 114.066 5.57422C114.48 5.39844 114.955 5.31055 115.49 5.31055C115.947 5.31055 116.369 5.35352 116.756 5.43945C117.146 5.52539 117.504 5.64062 117.828 5.78516L117.518 6.64062C117.209 6.51172 116.881 6.4043 116.533 6.31836C116.189 6.23242 115.834 6.18945 115.467 6.18945C115.1 6.18945 114.789 6.24414 114.535 6.35352C114.285 6.45898 114.094 6.60938 113.961 6.80469C113.828 7 113.762 7.23242 113.762 7.50195C113.762 7.80273 113.824 8.05273 113.949 8.25195C114.078 8.45117 114.281 8.62891 114.559 8.78516C114.84 8.9375 115.211 9.09766 115.672 9.26562C116.176 9.44922 116.604 9.64453 116.955 9.85156C117.307 10.0547 117.574 10.3047 117.758 10.6016C117.941 10.8945 118.033 11.2676 118.033 11.7207ZM122.111 7.46094C122.658 7.46094 123.127 7.58203 123.518 7.82422C123.908 8.06641 124.207 8.40625 124.414 8.84375C124.621 9.27734 124.725 9.78516 124.725 10.3672V10.9707H120.289C120.301 11.7246 120.488 12.2988 120.852 12.6934C121.215 13.0879 121.727 13.2852 122.387 13.2852C122.793 13.2852 123.152 13.248 123.465 13.1738C123.777 13.0996 124.102 12.9902 124.438 12.8457V13.7012C124.113 13.8457 123.791 13.9512 123.471 14.0176C123.154 14.084 122.779 14.1172 122.346 14.1172C121.729 14.1172 121.189 13.9922 120.729 13.7422C120.271 13.4883 119.916 13.1172 119.662 12.6289C119.408 12.1406 119.281 11.543 119.281 10.8359C119.281 10.1445 119.396 9.54688 119.627 9.04297C119.861 8.53516 120.189 8.14453 120.611 7.87109C121.037 7.59766 121.537 7.46094 122.111 7.46094ZM122.1 8.25781C121.58 8.25781 121.166 8.42773 120.857 8.76758C120.549 9.10742 120.365 9.58203 120.307 10.1914H123.705C123.701 9.80859 123.641 9.47266 123.523 9.18359C123.41 8.89062 123.236 8.66406 123.002 8.50391C122.768 8.33984 122.467 8.25781 122.1 8.25781ZM127.355 14H126.377V4.88281H127.355V14ZM131.885 7.46094C132.432 7.46094 132.9 7.58203 133.291 7.82422C133.682 8.06641 133.98 8.40625 134.188 8.84375C134.395 9.27734 134.498 9.78516 134.498 10.3672V10.9707H130.062C130.074 11.7246 130.262 12.2988 130.625 12.6934C130.988 13.0879 131.5 13.2852 132.16 13.2852C132.566 13.2852 132.926 13.248 133.238 13.1738C133.551 13.0996 133.875 12.9902 134.211 12.8457V13.7012C133.887 13.8457 133.564 13.9512 133.244 14.0176C132.928 14.084 132.553 14.1172 132.119 14.1172C131.502 14.1172 130.963 13.9922 130.502 13.7422C130.045 13.4883 129.689 13.1172 129.436 12.6289C129.182 12.1406 129.055 11.543 129.055 10.8359C129.055 10.1445 129.17 9.54688 129.4 9.04297C129.635 8.53516 129.963 8.14453 130.385 7.87109C130.811 7.59766 131.311 7.46094 131.885 7.46094ZM131.873 8.25781C131.354 8.25781 130.939 8.42773 130.631 8.76758C130.322 9.10742 130.139 9.58203 130.08 10.1914H133.479C133.475 9.80859 133.414 9.47266 133.297 9.18359C133.184 8.89062 133.01 8.66406 132.775 8.50391C132.541 8.33984 132.24 8.25781 131.873 8.25781ZM138.723 14.1172C138.145 14.1172 137.635 13.998 137.193 13.7598C136.752 13.5215 136.408 13.1582 136.162 12.6699C135.916 12.1816 135.793 11.5664 135.793 10.8242C135.793 10.0469 135.922 9.41211 136.18 8.91992C136.441 8.42383 136.801 8.05664 137.258 7.81836C137.715 7.58008 138.234 7.46094 138.816 7.46094C139.137 7.46094 139.445 7.49414 139.742 7.56055C140.043 7.62305 140.289 7.70312 140.48 7.80078L140.188 8.61523C139.992 8.53711 139.766 8.4668 139.508 8.4043C139.254 8.3418 139.016 8.31055 138.793 8.31055C138.348 8.31055 137.977 8.40625 137.68 8.59766C137.387 8.78906 137.166 9.07031 137.018 9.44141C136.873 9.8125 136.801 10.2695 136.801 10.8125C136.801 11.332 136.871 11.7754 137.012 12.1426C137.156 12.5098 137.369 12.791 137.65 12.9863C137.936 13.1777 138.291 13.2734 138.717 13.2734C139.057 13.2734 139.363 13.2383 139.637 13.168C139.91 13.0938 140.158 13.0078 140.381 12.9102V13.7773C140.166 13.8867 139.926 13.9707 139.66 14.0293C139.398 14.0879 139.086 14.1172 138.723 14.1172ZM143.979 13.3203C144.139 13.3203 144.303 13.3066 144.471 13.2793C144.639 13.252 144.775 13.2188 144.881 13.1797V13.9355C144.768 13.9863 144.609 14.0293 144.406 14.0645C144.207 14.0996 144.012 14.1172 143.82 14.1172C143.48 14.1172 143.172 14.0586 142.895 13.9414C142.617 13.8203 142.395 13.6172 142.227 13.332C142.062 13.0469 141.98 12.6523 141.98 12.1484V8.33984H141.066V7.86523L141.986 7.48438L142.373 6.08984H142.959V7.57812H144.84V8.33984H142.959V12.1191C142.959 12.5215 143.051 12.8223 143.234 13.0215C143.422 13.2207 143.67 13.3203 143.979 13.3203ZM151.871 14.1172C151.293 14.1172 150.783 13.998 150.342 13.7598C149.9 13.5215 149.557 13.1582 149.311 12.6699C149.064 12.1816 148.941 11.5664 148.941 10.8242C148.941 10.0469 149.07 9.41211 149.328 8.91992C149.59 8.42383 149.949 8.05664 150.406 7.81836C150.863 7.58008 151.383 7.46094 151.965 7.46094C152.285 7.46094 152.594 7.49414 152.891 7.56055C153.191 7.62305 153.438 7.70312 153.629 7.80078L153.336 8.61523C153.141 8.53711 152.914 8.4668 152.656 8.4043C152.402 8.3418 152.164 8.31055 151.941 8.31055C151.496 8.31055 151.125 8.40625 150.828 8.59766C150.535 8.78906 150.314 9.07031 150.166 9.44141C150.021 9.8125 149.949 10.2695 149.949 10.8125C149.949 11.332 150.02 11.7754 150.16 12.1426C150.305 12.5098 150.518 12.791 150.799 12.9863C151.084 13.1777 151.439 13.2734 151.865 13.2734C152.205 13.2734 152.512 13.2383 152.785 13.168C153.059 13.0938 153.307 13.0078 153.529 12.9102V13.7773C153.314 13.8867 153.074 13.9707 152.809 14.0293C152.547 14.0879 152.234 14.1172 151.871 14.1172ZM160.59 10.7773C160.59 11.3047 160.521 11.7754 160.385 12.1895C160.248 12.6035 160.051 12.9531 159.793 13.2383C159.535 13.5234 159.223 13.7422 158.855 13.8945C158.492 14.043 158.08 14.1172 157.619 14.1172C157.189 14.1172 156.795 14.043 156.436 13.8945C156.08 13.7422 155.771 13.5234 155.51 13.2383C155.252 12.9531 155.051 12.6035 154.906 12.1895C154.766 11.7754 154.695 11.3047 154.695 10.7773C154.695 10.0742 154.814 9.47656 155.053 8.98438C155.291 8.48828 155.631 8.11133 156.072 7.85352C156.518 7.5918 157.047 7.46094 157.66 7.46094C158.246 7.46094 158.758 7.5918 159.195 7.85352C159.637 8.11523 159.979 8.49414 160.221 8.99023C160.467 9.48242 160.59 10.0781 160.59 10.7773ZM155.703 10.7773C155.703 11.293 155.771 11.7402 155.908 12.1191C156.045 12.498 156.256 12.791 156.541 12.998C156.826 13.2051 157.193 13.3086 157.643 13.3086C158.088 13.3086 158.453 13.2051 158.738 12.998C159.027 12.791 159.24 12.498 159.377 12.1191C159.514 11.7402 159.582 11.293 159.582 10.7773C159.582 10.2656 159.514 9.82422 159.377 9.45312C159.24 9.07812 159.029 8.78906 158.744 8.58594C158.459 8.38281 158.09 8.28125 157.637 8.28125C156.969 8.28125 156.479 8.50195 156.166 8.94336C155.857 9.38477 155.703 9.99609 155.703 10.7773ZM167.574 7.57812V14H166.777L166.637 13.0977H166.584C166.451 13.3203 166.279 13.5078 166.068 13.6602C165.857 13.8125 165.619 13.9258 165.354 14C165.092 14.0781 164.812 14.1172 164.516 14.1172C164.008 14.1172 163.582 14.0352 163.238 13.8711C162.895 13.707 162.635 13.4531 162.459 13.1094C162.287 12.7656 162.201 12.3242 162.201 11.7852V7.57812H163.186V11.7148C163.186 12.25 163.307 12.6504 163.549 12.916C163.791 13.1777 164.16 13.3086 164.656 13.3086C165.133 13.3086 165.512 13.2188 165.793 13.0391C166.078 12.8594 166.283 12.5957 166.408 12.248C166.533 11.8965 166.596 11.4668 166.596 10.959V7.57812H167.574ZM172.549 7.46094C172.678 7.46094 172.812 7.46875 172.953 7.48438C173.094 7.49609 173.219 7.51367 173.328 7.53711L173.205 8.43945C173.1 8.41211 172.982 8.39062 172.854 8.375C172.725 8.35938 172.604 8.35156 172.49 8.35156C172.232 8.35156 171.988 8.4043 171.758 8.50977C171.531 8.61133 171.332 8.75977 171.16 8.95508C170.988 9.14648 170.854 9.37891 170.756 9.65234C170.658 9.92188 170.609 10.2227 170.609 10.5547V14H169.631V7.57812H170.439L170.545 8.76172H170.586C170.719 8.52344 170.879 8.30664 171.066 8.11133C171.254 7.91211 171.471 7.75391 171.717 7.63672C171.967 7.51953 172.244 7.46094 172.549 7.46094ZM178.695 12.2422C178.695 12.6523 178.592 12.998 178.385 13.2793C178.182 13.5566 177.889 13.7656 177.506 13.9062C177.127 14.0469 176.674 14.1172 176.146 14.1172C175.697 14.1172 175.309 14.082 174.98 14.0117C174.652 13.9414 174.365 13.8418 174.119 13.7129V12.8164C174.381 12.9453 174.693 13.0625 175.057 13.168C175.42 13.2734 175.791 13.3262 176.17 13.3262C176.725 13.3262 177.127 13.2363 177.377 13.0566C177.627 12.877 177.752 12.6328 177.752 12.3242C177.752 12.1484 177.701 11.9941 177.6 11.8613C177.502 11.7246 177.336 11.5938 177.102 11.4688C176.867 11.3398 176.543 11.1992 176.129 11.0469C175.719 10.8906 175.363 10.7363 175.062 10.584C174.766 10.4277 174.535 10.2383 174.371 10.0156C174.211 9.79297 174.131 9.50391 174.131 9.14844C174.131 8.60547 174.35 8.18945 174.787 7.90039C175.229 7.60742 175.807 7.46094 176.521 7.46094C176.908 7.46094 177.27 7.5 177.605 7.57812C177.945 7.65234 178.262 7.75391 178.555 7.88281L178.227 8.66211C177.961 8.54883 177.678 8.45312 177.377 8.375C177.076 8.29688 176.77 8.25781 176.457 8.25781C176.008 8.25781 175.662 8.33203 175.42 8.48047C175.182 8.62891 175.062 8.83203 175.062 9.08984C175.062 9.28906 175.117 9.45312 175.227 9.58203C175.34 9.71094 175.52 9.83203 175.766 9.94531C176.012 10.0586 176.336 10.1914 176.738 10.3438C177.141 10.4922 177.488 10.6465 177.781 10.8066C178.074 10.9629 178.299 11.1543 178.455 11.3809C178.615 11.6035 178.695 11.8906 178.695 12.2422ZM182.732 7.46094C183.279 7.46094 183.748 7.58203 184.139 7.82422C184.529 8.06641 184.828 8.40625 185.035 8.84375C185.242 9.27734 185.346 9.78516 185.346 10.3672V10.9707H180.91C180.922 11.7246 181.109 12.2988 181.473 12.6934C181.836 13.0879 182.348 13.2852 183.008 13.2852C183.414 13.2852 183.773 13.248 184.086 13.1738C184.398 13.0996 184.723 12.9902 185.059 12.8457V13.7012C184.734 13.8457 184.412 13.9512 184.092 14.0176C183.775 14.084 183.4 14.1172 182.967 14.1172C182.35 14.1172 181.811 13.9922 181.35 13.7422C180.893 13.4883 180.537 13.1172 180.283 12.6289C180.029 12.1406 179.902 11.543 179.902 10.8359C179.902 10.1445 180.018 9.54688 180.248 9.04297C180.482 8.53516 180.811 8.14453 181.232 7.87109C181.658 7.59766 182.158 7.46094 182.732 7.46094ZM182.721 8.25781C182.201 8.25781 181.787 8.42773 181.479 8.76758C181.17 9.10742 180.986 9.58203 180.928 10.1914H184.326C184.322 9.80859 184.262 9.47266 184.145 9.18359C184.031 8.89062 183.857 8.66406 183.623 8.50391C183.389 8.33984 183.088 8.25781 182.721 8.25781Z" fill="#F2F2F2"/>
<path opacity="0.7" d="M217.9 11.7207C217.9 12.2285 217.773 12.6621 217.52 13.0215C217.27 13.377 216.918 13.6484 216.465 13.8359C216.012 14.0234 215.479 14.1172 214.865 14.1172C214.541 14.1172 214.234 14.1016 213.945 14.0703C213.656 14.0391 213.391 13.9941 213.148 13.9355C212.906 13.877 212.693 13.8047 212.51 13.7188V12.7637C212.803 12.8848 213.16 12.998 213.582 13.1035C214.004 13.2051 214.445 13.2559 214.906 13.2559C215.336 13.2559 215.699 13.1992 215.996 13.0859C216.293 12.9688 216.518 12.8027 216.67 12.5879C216.826 12.3691 216.904 12.1074 216.904 11.8027C216.904 11.5098 216.84 11.2656 216.711 11.0703C216.582 10.8711 216.367 10.6914 216.066 10.5312C215.77 10.3672 215.363 10.1934 214.848 10.0098C214.484 9.88086 214.164 9.74023 213.887 9.58789C213.609 9.43164 213.377 9.25586 213.189 9.06055C213.002 8.86523 212.859 8.63867 212.762 8.38086C212.668 8.12305 212.621 7.82812 212.621 7.49609C212.621 7.03906 212.736 6.64844 212.967 6.32422C213.201 5.99609 213.523 5.74609 213.934 5.57422C214.348 5.39844 214.822 5.31055 215.357 5.31055C215.814 5.31055 216.236 5.35352 216.623 5.43945C217.014 5.52539 217.371 5.64062 217.695 5.78516L217.385 6.64062C217.076 6.51172 216.748 6.4043 216.4 6.31836C216.057 6.23242 215.701 6.18945 215.334 6.18945C214.967 6.18945 214.656 6.24414 214.402 6.35352C214.152 6.45898 213.961 6.60938 213.828 6.80469C213.695 7 213.629 7.23242 213.629 7.50195C213.629 7.80273 213.691 8.05273 213.816 8.25195C213.945 8.45117 214.148 8.62891 214.426 8.78516C214.707 8.9375 215.078 9.09766 215.539 9.26562C216.043 9.44922 216.471 9.64453 216.822 9.85156C217.174 10.0547 217.441 10.3047 217.625 10.6016C217.809 10.8945 217.9 11.2676 217.9 11.7207ZM221.979 7.46094C222.525 7.46094 222.994 7.58203 223.385 7.82422C223.775 8.06641 224.074 8.40625 224.281 8.84375C224.488 9.27734 224.592 9.78516 224.592 10.3672V10.9707H220.156C220.168 11.7246 220.355 12.2988 220.719 12.6934C221.082 13.0879 221.594 13.2852 222.254 13.2852C222.66 13.2852 223.02 13.248 223.332 13.1738C223.645 13.0996 223.969 12.9902 224.305 12.8457V13.7012C223.98 13.8457 223.658 13.9512 223.338 14.0176C223.021 14.084 222.646 14.1172 222.213 14.1172C221.596 14.1172 221.057 13.9922 220.596 13.7422C220.139 13.4883 219.783 13.1172 219.529 12.6289C219.275 12.1406 219.148 11.543 219.148 10.8359C219.148 10.1445 219.264 9.54688 219.494 9.04297C219.729 8.53516 220.057 8.14453 220.479 7.87109C220.904 7.59766 221.404 7.46094 221.979 7.46094ZM221.967 8.25781C221.447 8.25781 221.033 8.42773 220.725 8.76758C220.416 9.10742 220.232 9.58203 220.174 10.1914H223.572C223.568 9.80859 223.508 9.47266 223.391 9.18359C223.277 8.89062 223.104 8.66406 222.869 8.50391C222.635 8.33984 222.334 8.25781 221.967 8.25781ZM227.223 14H226.244V4.88281H227.223V14ZM231.752 7.46094C232.299 7.46094 232.768 7.58203 233.158 7.82422C233.549 8.06641 233.848 8.40625 234.055 8.84375C234.262 9.27734 234.365 9.78516 234.365 10.3672V10.9707H229.93C229.941 11.7246 230.129 12.2988 230.492 12.6934C230.855 13.0879 231.367 13.2852 232.027 13.2852C232.434 13.2852 232.793 13.248 233.105 13.1738C233.418 13.0996 233.742 12.9902 234.078 12.8457V13.7012C233.754 13.8457 233.432 13.9512 233.111 14.0176C232.795 14.084 232.42 14.1172 231.986 14.1172C231.369 14.1172 230.83 13.9922 230.369 13.7422C229.912 13.4883 229.557 13.1172 229.303 12.6289C229.049 12.1406 228.922 11.543 228.922 10.8359C228.922 10.1445 229.037 9.54688 229.268 9.04297C229.502 8.53516 229.83 8.14453 230.252 7.87109C230.678 7.59766 231.178 7.46094 231.752 7.46094ZM231.74 8.25781C231.221 8.25781 230.807 8.42773 230.498 8.76758C230.189 9.10742 230.006 9.58203 229.947 10.1914H233.346C233.342 9.80859 233.281 9.47266 233.164 9.18359C233.051 8.89062 232.877 8.66406 232.643 8.50391C232.408 8.33984 232.107 8.25781 231.74 8.25781ZM238.59 14.1172C238.012 14.1172 237.502 13.998 237.061 13.7598C236.619 13.5215 236.275 13.1582 236.029 12.6699C235.783 12.1816 235.66 11.5664 235.66 10.8242C235.66 10.0469 235.789 9.41211 236.047 8.91992C236.309 8.42383 236.668 8.05664 237.125 7.81836C237.582 7.58008 238.102 7.46094 238.684 7.46094C239.004 7.46094 239.312 7.49414 239.609 7.56055C239.91 7.62305 240.156 7.70312 240.348 7.80078L240.055 8.61523C239.859 8.53711 239.633 8.4668 239.375 8.4043C239.121 8.3418 238.883 8.31055 238.66 8.31055C238.215 8.31055 237.844 8.40625 237.547 8.59766C237.254 8.78906 237.033 9.07031 236.885 9.44141C236.74 9.8125 236.668 10.2695 236.668 10.8125C236.668 11.332 236.738 11.7754 236.879 12.1426C237.023 12.5098 237.236 12.791 237.518 12.9863C237.803 13.1777 238.158 13.2734 238.584 13.2734C238.924 13.2734 239.23 13.2383 239.504 13.168C239.777 13.0938 240.025 13.0078 240.248 12.9102V13.7773C240.033 13.8867 239.793 13.9707 239.527 14.0293C239.266 14.0879 238.953 14.1172 238.59 14.1172ZM243.846 13.3203C244.006 13.3203 244.17 13.3066 244.338 13.2793C244.506 13.252 244.643 13.2188 244.748 13.1797V13.9355C244.635 13.9863 244.477 14.0293 244.273 14.0645C244.074 14.0996 243.879 14.1172 243.688 14.1172C243.348 14.1172 243.039 14.0586 242.762 13.9414C242.484 13.8203 242.262 13.6172 242.094 13.332C241.93 13.0469 241.848 12.6523 241.848 12.1484V8.33984H240.934V7.86523L241.854 7.48438L242.24 6.08984H242.826V7.57812H244.707V8.33984H242.826V12.1191C242.826 12.5215 242.918 12.8223 243.102 13.0215C243.289 13.2207 243.537 13.3203 243.846 13.3203ZM251.943 14H250.941V6.3125H248.246V5.43359H254.627V6.3125H251.943V14ZM261.312 10.7773C261.312 11.3047 261.244 11.7754 261.107 12.1895C260.971 12.6035 260.773 12.9531 260.516 13.2383C260.258 13.5234 259.945 13.7422 259.578 13.8945C259.215 14.043 258.803 14.1172 258.342 14.1172C257.912 14.1172 257.518 14.043 257.158 13.8945C256.803 13.7422 256.494 13.5234 256.232 13.2383C255.975 12.9531 255.773 12.6035 255.629 12.1895C255.488 11.7754 255.418 11.3047 255.418 10.7773C255.418 10.0742 255.537 9.47656 255.775 8.98438C256.014 8.48828 256.354 8.11133 256.795 7.85352C257.24 7.5918 257.77 7.46094 258.383 7.46094C258.969 7.46094 259.48 7.5918 259.918 7.85352C260.359 8.11523 260.701 8.49414 260.943 8.99023C261.189 9.48242 261.312 10.0781 261.312 10.7773ZM256.426 10.7773C256.426 11.293 256.494 11.7402 256.631 12.1191C256.768 12.498 256.979 12.791 257.264 12.998C257.549 13.2051 257.916 13.3086 258.365 13.3086C258.811 13.3086 259.176 13.2051 259.461 12.998C259.75 12.791 259.963 12.498 260.1 12.1191C260.236 11.7402 260.305 11.293 260.305 10.7773C260.305 10.2656 260.236 9.82422 260.1 9.45312C259.963 9.07812 259.752 8.78906 259.467 8.58594C259.182 8.38281 258.812 8.28125 258.359 8.28125C257.691 8.28125 257.201 8.50195 256.889 8.94336C256.58 9.38477 256.426 9.99609 256.426 10.7773ZM266.012 7.46094C266.812 7.46094 267.451 7.73633 267.928 8.28711C268.404 8.83789 268.643 9.66602 268.643 10.7715C268.643 11.502 268.533 12.1152 268.314 12.6113C268.096 13.1074 267.787 13.4824 267.389 13.7363C266.994 13.9902 266.527 14.1172 265.988 14.1172C265.648 14.1172 265.35 14.0723 265.092 13.9824C264.834 13.8926 264.613 13.7715 264.43 13.6191C264.246 13.4668 264.094 13.3008 263.973 13.1211H263.902C263.914 13.2734 263.928 13.457 263.943 13.6719C263.963 13.8867 263.973 14.0742 263.973 14.2344V16.8711H262.994V7.57812H263.797L263.926 8.52734H263.973C264.098 8.33203 264.25 8.1543 264.43 7.99414C264.609 7.83008 264.828 7.70117 265.086 7.60742C265.348 7.50977 265.656 7.46094 266.012 7.46094ZM265.842 8.28125C265.396 8.28125 265.037 8.36719 264.764 8.53906C264.494 8.71094 264.297 8.96875 264.172 9.3125C264.047 9.65234 263.98 10.0801 263.973 10.5957V10.7832C263.973 11.3262 264.031 11.7852 264.148 12.1602C264.27 12.5352 264.467 12.8203 264.74 13.0156C265.018 13.2109 265.389 13.3086 265.854 13.3086C266.252 13.3086 266.584 13.2012 266.85 12.9863C267.115 12.7715 267.312 12.4727 267.441 12.0898C267.574 11.7031 267.641 11.2598 267.641 10.7598C267.641 10.002 267.492 9.40039 267.195 8.95508C266.902 8.50586 266.451 8.28125 265.842 8.28125ZM271.314 7.57812V14H270.342V7.57812H271.314ZM270.84 5.17578C271 5.17578 271.137 5.22852 271.25 5.33398C271.367 5.43555 271.426 5.5957 271.426 5.81445C271.426 6.0293 271.367 6.18945 271.25 6.29492C271.137 6.40039 271 6.45312 270.84 6.45312C270.672 6.45312 270.531 6.40039 270.418 6.29492C270.309 6.18945 270.254 6.0293 270.254 5.81445C270.254 5.5957 270.309 5.43555 270.418 5.33398C270.531 5.22852 270.672 5.17578 270.84 5.17578ZM275.949 14.1172C275.371 14.1172 274.861 13.998 274.42 13.7598C273.979 13.5215 273.635 13.1582 273.389 12.6699C273.143 12.1816 273.02 11.5664 273.02 10.8242C273.02 10.0469 273.148 9.41211 273.406 8.91992C273.668 8.42383 274.027 8.05664 274.484 7.81836C274.941 7.58008 275.461 7.46094 276.043 7.46094C276.363 7.46094 276.672 7.49414 276.969 7.56055C277.27 7.62305 277.516 7.70312 277.707 7.80078L277.414 8.61523C277.219 8.53711 276.992 8.4668 276.734 8.4043C276.48 8.3418 276.242 8.31055 276.02 8.31055C275.574 8.31055 275.203 8.40625 274.906 8.59766C274.613 8.78906 274.393 9.07031 274.244 9.44141C274.1 9.8125 274.027 10.2695 274.027 10.8125C274.027 11.332 274.098 11.7754 274.238 12.1426C274.383 12.5098 274.596 12.791 274.877 12.9863C275.162 13.1777 275.518 13.2734 275.943 13.2734C276.283 13.2734 276.59 13.2383 276.863 13.168C277.137 13.0938 277.385 13.0078 277.607 12.9102V13.7773C277.393 13.8867 277.152 13.9707 276.887 14.0293C276.625 14.0879 276.312 14.1172 275.949 14.1172Z" fill="#F2F2F2"/>
<path opacity="0.7" d="M309.359 11.7207C309.359 12.2285 309.232 12.6621 308.979 13.0215C308.729 13.377 308.377 13.6484 307.924 13.8359C307.471 14.0234 306.938 14.1172 306.324 14.1172C306 14.1172 305.693 14.1016 305.404 14.0703C305.115 14.0391 304.85 13.9941 304.607 13.9355C304.365 13.877 304.152 13.8047 303.969 13.7188V12.7637C304.262 12.8848 304.619 12.998 305.041 13.1035C305.463 13.2051 305.904 13.2559 306.365 13.2559C306.795 13.2559 307.158 13.1992 307.455 13.0859C307.752 12.9688 307.977 12.8027 308.129 12.5879C308.285 12.3691 308.363 12.1074 308.363 11.8027C308.363 11.5098 308.299 11.2656 308.17 11.0703C308.041 10.8711 307.826 10.6914 307.525 10.5312C307.229 10.3672 306.822 10.1934 306.307 10.0098C305.943 9.88086 305.623 9.74023 305.346 9.58789C305.068 9.43164 304.836 9.25586 304.648 9.06055C304.461 8.86523 304.318 8.63867 304.221 8.38086C304.127 8.12305 304.08 7.82812 304.08 7.49609C304.08 7.03906 304.195 6.64844 304.426 6.32422C304.66 5.99609 304.982 5.74609 305.393 5.57422C305.807 5.39844 306.281 5.31055 306.816 5.31055C307.273 5.31055 307.695 5.35352 308.082 5.43945C308.473 5.52539 308.83 5.64062 309.154 5.78516L308.844 6.64062C308.535 6.51172 308.207 6.4043 307.859 6.31836C307.516 6.23242 307.16 6.18945 306.793 6.18945C306.426 6.18945 306.115 6.24414 305.861 6.35352C305.611 6.45898 305.42 6.60938 305.287 6.80469C305.154 7 305.088 7.23242 305.088 7.50195C305.088 7.80273 305.15 8.05273 305.275 8.25195C305.404 8.45117 305.607 8.62891 305.885 8.78516C306.166 8.9375 306.537 9.09766 306.998 9.26562C307.502 9.44922 307.93 9.64453 308.281 9.85156C308.633 10.0547 308.9 10.3047 309.084 10.6016C309.268 10.8945 309.359 11.2676 309.359 11.7207ZM313.438 7.46094C313.984 7.46094 314.453 7.58203 314.844 7.82422C315.234 8.06641 315.533 8.40625 315.74 8.84375C315.947 9.27734 316.051 9.78516 316.051 10.3672V10.9707H311.615C311.627 11.7246 311.814 12.2988 312.178 12.6934C312.541 13.0879 313.053 13.2852 313.713 13.2852C314.119 13.2852 314.479 13.248 314.791 13.1738C315.104 13.0996 315.428 12.9902 315.764 12.8457V13.7012C315.439 13.8457 315.117 13.9512 314.797 14.0176C314.48 14.084 314.105 14.1172 313.672 14.1172C313.055 14.1172 312.516 13.9922 312.055 13.7422C311.598 13.4883 311.242 13.1172 310.988 12.6289C310.734 12.1406 310.607 11.543 310.607 10.8359C310.607 10.1445 310.723 9.54688 310.953 9.04297C311.188 8.53516 311.516 8.14453 311.938 7.87109C312.363 7.59766 312.863 7.46094 313.438 7.46094ZM313.426 8.25781C312.906 8.25781 312.492 8.42773 312.184 8.76758C311.875 9.10742 311.691 9.58203 311.633 10.1914H315.031C315.027 9.80859 314.967 9.47266 314.85 9.18359C314.736 8.89062 314.562 8.66406 314.328 8.50391C314.094 8.33984 313.793 8.25781 313.426 8.25781ZM318.682 14H317.703V4.88281H318.682V14ZM323.211 7.46094C323.758 7.46094 324.227 7.58203 324.617 7.82422C325.008 8.06641 325.307 8.40625 325.514 8.84375C325.721 9.27734 325.824 9.78516 325.824 10.3672V10.9707H321.389C321.4 11.7246 321.588 12.2988 321.951 12.6934C322.314 13.0879 322.826 13.2852 323.486 13.2852C323.893 13.2852 324.252 13.248 324.564 13.1738C324.877 13.0996 325.201 12.9902 325.537 12.8457V13.7012C325.213 13.8457 324.891 13.9512 324.57 14.0176C324.254 14.084 323.879 14.1172 323.445 14.1172C322.828 14.1172 322.289 13.9922 321.828 13.7422C321.371 13.4883 321.016 13.1172 320.762 12.6289C320.508 12.1406 320.381 11.543 320.381 10.8359C320.381 10.1445 320.496 9.54688 320.727 9.04297C320.961 8.53516 321.289 8.14453 321.711 7.87109C322.137 7.59766 322.637 7.46094 323.211 7.46094ZM323.199 8.25781C322.68 8.25781 322.266 8.42773 321.957 8.76758C321.648 9.10742 321.465 9.58203 321.406 10.1914H324.805C324.801 9.80859 324.74 9.47266 324.623 9.18359C324.51 8.89062 324.336 8.66406 324.102 8.50391C323.867 8.33984 323.566 8.25781 323.199 8.25781ZM330.049 14.1172C329.471 14.1172 328.961 13.998 328.52 13.7598C328.078 13.5215 327.734 13.1582 327.488 12.6699C327.242 12.1816 327.119 11.5664 327.119 10.8242C327.119 10.0469 327.248 9.41211 327.506 8.91992C327.768 8.42383 328.127 8.05664 328.584 7.81836C329.041 7.58008 329.561 7.46094 330.143 7.46094C330.463 7.46094 330.771 7.49414 331.068 7.56055C331.369 7.62305 331.615 7.70312 331.807 7.80078L331.514 8.61523C331.318 8.53711 331.092 8.4668 330.834 8.4043C330.58 8.3418 330.342 8.31055 330.119 8.31055C329.674 8.31055 329.303 8.40625 329.006 8.59766C328.713 8.78906 328.492 9.07031 328.344 9.44141C328.199 9.8125 328.127 10.2695 328.127 10.8125C328.127 11.332 328.197 11.7754 328.338 12.1426C328.482 12.5098 328.695 12.791 328.977 12.9863C329.262 13.1777 329.617 13.2734 330.043 13.2734C330.383 13.2734 330.689 13.2383 330.963 13.168C331.236 13.0938 331.484 13.0078 331.707 12.9102V13.7773C331.492 13.8867 331.252 13.9707 330.986 14.0293C330.725 14.0879 330.412 14.1172 330.049 14.1172ZM335.305 13.3203C335.465 13.3203 335.629 13.3066 335.797 13.2793C335.965 13.252 336.102 13.2188 336.207 13.1797V13.9355C336.094 13.9863 335.936 14.0293 335.732 14.0645C335.533 14.0996 335.338 14.1172 335.146 14.1172C334.807 14.1172 334.498 14.0586 334.221 13.9414C333.943 13.8203 333.721 13.6172 333.553 13.332C333.389 13.0469 333.307 12.6523 333.307 12.1484V8.33984H332.393V7.86523L333.312 7.48438L333.699 6.08984H334.285V7.57812H336.166V8.33984H334.285V12.1191C334.285 12.5215 334.377 12.8223 334.561 13.0215C334.748 13.2207 334.996 13.3203 335.305 13.3203ZM348.201 9.70508C348.201 10.4082 348.105 11.0449 347.914 11.6152C347.723 12.1855 347.438 12.668 347.059 13.0625C346.684 13.457 346.215 13.7441 345.652 13.9238L347.668 16.0391H346.244L344.586 14.1055C344.535 14.1055 344.482 14.1074 344.428 14.1113C344.377 14.1152 344.326 14.1172 344.275 14.1172C343.611 14.1172 343.031 14.0117 342.535 13.8008C342.043 13.5898 341.633 13.2891 341.305 12.8984C340.98 12.5078 340.736 12.041 340.572 11.498C340.412 10.9551 340.332 10.3535 340.332 9.69336C340.332 8.81836 340.477 8.05078 340.766 7.39062C341.055 6.73047 341.492 6.2168 342.078 5.84961C342.668 5.48242 343.406 5.29883 344.293 5.29883C345.141 5.29883 345.854 5.48047 346.432 5.84375C347.014 6.20703 347.453 6.71875 347.75 7.37891C348.051 8.03516 348.201 8.81055 348.201 9.70508ZM341.381 9.70508C341.381 10.4316 341.484 11.0605 341.691 11.5918C341.898 12.123 342.215 12.5332 342.641 12.8223C343.07 13.1113 343.615 13.2559 344.275 13.2559C344.939 13.2559 345.482 13.1113 345.904 12.8223C346.33 12.5332 346.645 12.123 346.848 11.5918C347.051 11.0605 347.152 10.4316 347.152 9.70508C347.152 8.59961 346.92 7.73633 346.455 7.11523C345.994 6.49023 345.273 6.17773 344.293 6.17773C343.629 6.17773 343.082 6.32031 342.652 6.60547C342.223 6.89062 341.902 7.29688 341.691 7.82422C341.484 8.34766 341.381 8.97461 341.381 9.70508ZM355.268 7.57812V14H354.471L354.33 13.0977H354.277C354.145 13.3203 353.973 13.5078 353.762 13.6602C353.551 13.8125 353.312 13.9258 353.047 14C352.785 14.0781 352.506 14.1172 352.209 14.1172C351.701 14.1172 351.275 14.0352 350.932 13.8711C350.588 13.707 350.328 13.4531 350.152 13.1094C349.98 12.7656 349.895 12.3242 349.895 11.7852V7.57812H350.879V11.7148C350.879 12.25 351 12.6504 351.242 12.916C351.484 13.1777 351.854 13.3086 352.35 13.3086C352.826 13.3086 353.205 13.2188 353.486 13.0391C353.771 12.8594 353.977 12.5957 354.102 12.248C354.227 11.8965 354.289 11.4668 354.289 10.959V7.57812H355.268ZM359.797 7.46094C360.344 7.46094 360.812 7.58203 361.203 7.82422C361.594 8.06641 361.893 8.40625 362.1 8.84375C362.307 9.27734 362.41 9.78516 362.41 10.3672V10.9707H357.975C357.986 11.7246 358.174 12.2988 358.537 12.6934C358.9 13.0879 359.412 13.2852 360.072 13.2852C360.479 13.2852 360.838 13.248 361.15 13.1738C361.463 13.0996 361.787 12.9902 362.123 12.8457V13.7012C361.799 13.8457 361.477 13.9512 361.156 14.0176C360.84 14.084 360.465 14.1172 360.031 14.1172C359.414 14.1172 358.875 13.9922 358.414 13.7422C357.957 13.4883 357.602 13.1172 357.348 12.6289C357.094 12.1406 356.967 11.543 356.967 10.8359C356.967 10.1445 357.082 9.54688 357.312 9.04297C357.547 8.53516 357.875 8.14453 358.297 7.87109C358.723 7.59766 359.223 7.46094 359.797 7.46094ZM359.785 8.25781C359.266 8.25781 358.852 8.42773 358.543 8.76758C358.234 9.10742 358.051 9.58203 357.992 10.1914H361.391C361.387 9.80859 361.326 9.47266 361.209 9.18359C361.096 8.89062 360.922 8.66406 360.688 8.50391C360.453 8.33984 360.152 8.25781 359.785 8.25781ZM368.217 12.2422C368.217 12.6523 368.113 12.998 367.906 13.2793C367.703 13.5566 367.41 13.7656 367.027 13.9062C366.648 14.0469 366.195 14.1172 365.668 14.1172C365.219 14.1172 364.83 14.082 364.502 14.0117C364.174 13.9414 363.887 13.8418 363.641 13.7129V12.8164C363.902 12.9453 364.215 13.0625 364.578 13.168C364.941 13.2734 365.312 13.3262 365.691 13.3262C366.246 13.3262 366.648 13.2363 366.898 13.0566C367.148 12.877 367.273 12.6328 367.273 12.3242C367.273 12.1484 367.223 11.9941 367.121 11.8613C367.023 11.7246 366.857 11.5938 366.623 11.4688C366.389 11.3398 366.064 11.1992 365.65 11.0469C365.24 10.8906 364.885 10.7363 364.584 10.584C364.287 10.4277 364.057 10.2383 363.893 10.0156C363.732 9.79297 363.652 9.50391 363.652 9.14844C363.652 8.60547 363.871 8.18945 364.309 7.90039C364.75 7.60742 365.328 7.46094 366.043 7.46094C366.43 7.46094 366.791 7.5 367.127 7.57812C367.467 7.65234 367.783 7.75391 368.076 7.88281L367.748 8.66211C367.482 8.54883 367.199 8.45312 366.898 8.375C366.598 8.29688 366.291 8.25781 365.979 8.25781C365.529 8.25781 365.184 8.33203 364.941 8.48047C364.703 8.62891 364.584 8.83203 364.584 9.08984C364.584 9.28906 364.639 9.45312 364.748 9.58203C364.861 9.71094 365.041 9.83203 365.287 9.94531C365.533 10.0586 365.857 10.1914 366.26 10.3438C366.662 10.4922 367.01 10.6465 367.303 10.8066C367.596 10.9629 367.82 11.1543 367.977 11.3809C368.137 11.6035 368.217 11.8906 368.217 12.2422ZM371.855 13.3203C372.016 13.3203 372.18 13.3066 372.348 13.2793C372.516 13.252 372.652 13.2188 372.758 13.1797V13.9355C372.645 13.9863 372.486 14.0293 372.283 14.0645C372.084 14.0996 371.889 14.1172 371.697 14.1172C371.357 14.1172 371.049 14.0586 370.771 13.9414C370.494 13.8203 370.271 13.6172 370.104 13.332C369.939 13.0469 369.857 12.6523 369.857 12.1484V8.33984H368.943V7.86523L369.863 7.48438L370.25 6.08984H370.836V7.57812H372.717V8.33984H370.836V12.1191C370.836 12.5215 370.928 12.8223 371.111 13.0215C371.299 13.2207 371.547 13.3203 371.855 13.3203ZM375.031 7.57812V14H374.059V7.57812H375.031ZM374.557 5.17578C374.717 5.17578 374.854 5.22852 374.967 5.33398C375.084 5.43555 375.143 5.5957 375.143 5.81445C375.143 6.0293 375.084 6.18945 374.967 6.29492C374.854 6.40039 374.717 6.45312 374.557 6.45312C374.389 6.45312 374.248 6.40039 374.135 6.29492C374.025 6.18945 373.971 6.0293 373.971 5.81445C373.971 5.5957 374.025 5.43555 374.135 5.33398C374.248 5.22852 374.389 5.17578 374.557 5.17578ZM382.631 10.7773C382.631 11.3047 382.562 11.7754 382.426 12.1895C382.289 12.6035 382.092 12.9531 381.834 13.2383C381.576 13.5234 381.264 13.7422 380.896 13.8945C380.533 14.043 380.121 14.1172 379.66 14.1172C379.23 14.1172 378.836 14.043 378.477 13.8945C378.121 13.7422 377.812 13.5234 377.551 13.2383C377.293 12.9531 377.092 12.6035 376.947 12.1895C376.807 11.7754 376.736 11.3047 376.736 10.7773C376.736 10.0742 376.855 9.47656 377.094 8.98438C377.332 8.48828 377.672 8.11133 378.113 7.85352C378.559 7.5918 379.088 7.46094 379.701 7.46094C380.287 7.46094 380.799 7.5918 381.236 7.85352C381.678 8.11523 382.02 8.49414 382.262 8.99023C382.508 9.48242 382.631 10.0781 382.631 10.7773ZM377.744 10.7773C377.744 11.293 377.812 11.7402 377.949 12.1191C378.086 12.498 378.297 12.791 378.582 12.998C378.867 13.2051 379.234 13.3086 379.684 13.3086C380.129 13.3086 380.494 13.2051 380.779 12.998C381.068 12.791 381.281 12.498 381.418 12.1191C381.555 11.7402 381.623 11.293 381.623 10.7773C381.623 10.2656 381.555 9.82422 381.418 9.45312C381.281 9.07812 381.07 8.78906 380.785 8.58594C380.5 8.38281 380.131 8.28125 379.678 8.28125C379.01 8.28125 378.52 8.50195 378.207 8.94336C377.898 9.38477 377.744 9.99609 377.744 10.7773ZM387.354 7.46094C388.115 7.46094 388.691 7.64844 389.082 8.02344C389.473 8.39453 389.668 8.99219 389.668 9.81641V14H388.707V9.88086C388.707 9.3457 388.584 8.94531 388.338 8.67969C388.096 8.41406 387.723 8.28125 387.219 8.28125C386.508 8.28125 386.008 8.48242 385.719 8.88477C385.43 9.28711 385.285 9.87109 385.285 10.6367V14H384.312V7.57812H385.098L385.244 8.50391H385.297C385.434 8.27734 385.607 8.08789 385.818 7.93555C386.029 7.7793 386.266 7.66211 386.527 7.58398C386.789 7.50195 387.064 7.46094 387.354 7.46094Z" fill="#F2F2F2"/>
<path d="M7.97461 11.668C7.97461 12.1758 7.84961 12.6133 7.59961 12.9805C7.35352 13.3477 6.99805 13.6289 6.5332 13.8242C6.07227 14.0195 5.52148 14.1172 4.88086 14.1172C4.56836 14.1172 4.26953 14.0996 3.98438 14.0645C3.69922 14.0293 3.42969 13.9785 3.17578 13.9121C2.92578 13.8418 2.69727 13.7578 2.49023 13.6602V12.3359C2.83789 12.4883 3.22656 12.627 3.65625 12.752C4.08594 12.873 4.52344 12.9336 4.96875 12.9336C5.33203 12.9336 5.63281 12.8867 5.87109 12.793C6.11328 12.6953 6.29297 12.5586 6.41016 12.3828C6.52734 12.2031 6.58594 11.9941 6.58594 11.7559C6.58594 11.502 6.51758 11.2871 6.38086 11.1113C6.24414 10.9355 6.03711 10.7754 5.75977 10.6309C5.48633 10.4824 5.14258 10.3242 4.72852 10.1562C4.44727 10.043 4.17773 9.91406 3.91992 9.76953C3.66602 9.625 3.43945 9.45508 3.24023 9.25977C3.04102 9.06445 2.88281 8.83398 2.76562 8.56836C2.65234 8.29883 2.5957 7.98242 2.5957 7.61914C2.5957 7.13477 2.71094 6.7207 2.94141 6.37695C3.17578 6.0332 3.50391 5.76953 3.92578 5.58594C4.35156 5.40234 4.84766 5.31055 5.41406 5.31055C5.86328 5.31055 6.28516 5.35742 6.67969 5.45117C7.07812 5.54492 7.46875 5.67773 7.85156 5.84961L7.40625 6.98047C7.05469 6.83594 6.71289 6.7207 6.38086 6.63477C6.05273 6.54883 5.7168 6.50586 5.37305 6.50586C5.07617 6.50586 4.82422 6.55078 4.61719 6.64062C4.41016 6.73047 4.25195 6.85742 4.14258 7.02148C4.03711 7.18164 3.98438 7.37305 3.98438 7.5957C3.98438 7.8457 4.04492 8.05664 4.16602 8.22852C4.29102 8.39648 4.48242 8.55078 4.74023 8.69141C5.00195 8.83203 5.33789 8.98828 5.74805 9.16016C6.2207 9.35547 6.62109 9.56055 6.94922 9.77539C7.28125 9.99023 7.53516 10.248 7.71094 10.5488C7.88672 10.8457 7.97461 11.2188 7.97461 11.668ZM12.0703 7.39062C12.6484 7.39062 13.1445 7.50977 13.5586 7.74805C13.9727 7.98633 14.291 8.32422 14.5137 8.76172C14.7363 9.19922 14.8477 9.72266 14.8477 10.332V11.0703H10.5176C10.5332 11.6992 10.7012 12.1836 11.0215 12.5234C11.3457 12.8633 11.7988 13.0332 12.3809 13.0332C12.7949 13.0332 13.166 12.9941 13.4941 12.916C13.8262 12.834 14.168 12.7148 14.5195 12.5586V13.6777C14.1953 13.8301 13.8652 13.9414 13.5293 14.0117C13.1934 14.082 12.791 14.1172 12.3223 14.1172C11.6855 14.1172 11.125 13.9941 10.6406 13.748C10.1602 13.498 9.7832 13.127 9.50977 12.6348C9.24023 12.1426 9.10547 11.5312 9.10547 10.8008C9.10547 10.0742 9.22852 9.45703 9.47461 8.94922C9.7207 8.44141 10.0664 8.05469 10.5117 7.78906C10.957 7.52344 11.4766 7.39062 12.0703 7.39062ZM12.0703 8.42773C11.6367 8.42773 11.2852 8.56836 11.0156 8.84961C10.75 9.13086 10.5938 9.54297 10.5469 10.0859H13.5C13.4961 9.76172 13.4414 9.47461 13.3359 9.22461C13.2344 8.97461 13.0781 8.7793 12.8672 8.63867C12.6602 8.49805 12.3945 8.42773 12.0703 8.42773ZM17.7832 14H16.4004V4.88281H17.7832V14ZM22.3359 7.39062C22.9141 7.39062 23.4102 7.50977 23.8242 7.74805C24.2383 7.98633 24.5566 8.32422 24.7793 8.76172C25.002 9.19922 25.1133 9.72266 25.1133 10.332V11.0703H20.7832C20.7988 11.6992 20.9668 12.1836 21.2871 12.5234C21.6113 12.8633 22.0645 13.0332 22.6465 13.0332C23.0605 13.0332 23.4316 12.9941 23.7598 12.916C24.0918 12.834 24.4336 12.7148 24.7852 12.5586V13.6777C24.4609 13.8301 24.1309 13.9414 23.7949 14.0117C23.459 14.082 23.0566 14.1172 22.5879 14.1172C21.9512 14.1172 21.3906 13.9941 20.9062 13.748C20.4258 13.498 20.0488 13.127 19.7754 12.6348C19.5059 12.1426 19.3711 11.5312 19.3711 10.8008C19.3711 10.0742 19.4941 9.45703 19.7402 8.94922C19.9863 8.44141 20.332 8.05469 20.7773 7.78906C21.2227 7.52344 21.7422 7.39062 22.3359 7.39062ZM22.3359 8.42773C21.9023 8.42773 21.5508 8.56836 21.2812 8.84961C21.0156 9.13086 20.8594 9.54297 20.8125 10.0859H23.7656C23.7617 9.76172 23.707 9.47461 23.6016 9.22461C23.5 8.97461 23.3438 8.7793 23.1328 8.63867C22.9258 8.49805 22.6602 8.42773 22.3359 8.42773ZM29.2793 14.1172C28.666 14.1172 28.1348 13.998 27.6855 13.7598C27.2363 13.5215 26.8906 13.1562 26.6484 12.6641C26.4062 12.1719 26.2852 11.5469 26.2852 10.7891C26.2852 10 26.418 9.35547 26.6836 8.85547C26.9492 8.35547 27.3164 7.98633 27.7852 7.74805C28.2578 7.50977 28.7988 7.39062 29.4082 7.39062C29.7949 7.39062 30.1445 7.42969 30.457 7.50781C30.7734 7.58203 31.041 7.67383 31.2598 7.7832L30.8496 8.88477C30.6113 8.78711 30.3672 8.70508 30.1172 8.63867C29.8672 8.57227 29.627 8.53906 29.3965 8.53906C29.0176 8.53906 28.7012 8.62305 28.4473 8.79102C28.1973 8.95898 28.0098 9.20898 27.8848 9.54102C27.7637 9.87305 27.7031 10.2852 27.7031 10.7773C27.7031 11.2539 27.7656 11.6562 27.8906 11.9844C28.0156 12.3086 28.2012 12.5547 28.4473 12.7227C28.6934 12.8867 28.9961 12.9688 29.3555 12.9688C29.7109 12.9688 30.0293 12.9258 30.3105 12.8398C30.5918 12.7539 30.8574 12.6426 31.1074 12.5059V13.7012C30.8613 13.8418 30.5977 13.9453 30.3164 14.0117C30.0352 14.082 29.6895 14.1172 29.2793 14.1172ZM35.0449 13.0039C35.2246 13.0039 35.4023 12.9883 35.5781 12.957C35.7539 12.9219 35.9141 12.8809 36.0586 12.834V13.877C35.9062 13.9434 35.709 14 35.4668 14.0469C35.2246 14.0938 34.9727 14.1172 34.7109 14.1172C34.3438 14.1172 34.0137 14.0566 33.7207 13.9355C33.4277 13.8105 33.1953 13.5977 33.0234 13.2969C32.8516 12.9961 32.7656 12.5801 32.7656 12.0488V8.5625H31.8809V7.94727L32.8301 7.46094L33.2812 6.07227H34.1484V7.51367H36.0059V8.5625H34.1484V12.0312C34.1484 12.3594 34.2305 12.6035 34.3945 12.7637C34.5586 12.9238 34.7754 13.0039 35.0449 13.0039ZM45.5801 11.668C45.5801 12.1758 45.4551 12.6133 45.2051 12.9805C44.959 13.3477 44.6035 13.6289 44.1387 13.8242C43.6777 14.0195 43.127 14.1172 42.4863 14.1172C42.1738 14.1172 41.875 14.0996 41.5898 14.0645C41.3047 14.0293 41.0352 13.9785 40.7812 13.9121C40.5312 13.8418 40.3027 13.7578 40.0957 13.6602V12.3359C40.4434 12.4883 40.832 12.627 41.2617 12.752C41.6914 12.873 42.1289 12.9336 42.5742 12.9336C42.9375 12.9336 43.2383 12.8867 43.4766 12.793C43.7188 12.6953 43.8984 12.5586 44.0156 12.3828C44.1328 12.2031 44.1914 11.9941 44.1914 11.7559C44.1914 11.502 44.123 11.2871 43.9863 11.1113C43.8496 10.9355 43.6426 10.7754 43.3652 10.6309C43.0918 10.4824 42.748 10.3242 42.334 10.1562C42.0527 10.043 41.7832 9.91406 41.5254 9.76953C41.2715 9.625 41.0449 9.45508 40.8457 9.25977C40.6465 9.06445 40.4883 8.83398 40.3711 8.56836C40.2578 8.29883 40.2012 7.98242 40.2012 7.61914C40.2012 7.13477 40.3164 6.7207 40.5469 6.37695C40.7812 6.0332 41.1094 5.76953 41.5312 5.58594C41.957 5.40234 42.4531 5.31055 43.0195 5.31055C43.4688 5.31055 43.8906 5.35742 44.2852 5.45117C44.6836 5.54492 45.0742 5.67773 45.457 5.84961L45.0117 6.98047C44.6602 6.83594 44.3184 6.7207 43.9863 6.63477C43.6582 6.54883 43.3223 6.50586 42.9785 6.50586C42.6816 6.50586 42.4297 6.55078 42.2227 6.64062C42.0156 6.73047 41.8574 6.85742 41.748 7.02148C41.6426 7.18164 41.5898 7.37305 41.5898 7.5957C41.5898 7.8457 41.6504 8.05664 41.7715 8.22852C41.8965 8.39648 42.0879 8.55078 42.3457 8.69141C42.6074 8.83203 42.9434 8.98828 43.3535 9.16016C43.8262 9.35547 44.2266 9.56055 44.5547 9.77539C44.8867 9.99023 45.1406 10.248 45.3164 10.5488C45.4922 10.8457 45.5801 11.2188 45.5801 11.668ZM49.5059 13.0039C49.6855 13.0039 49.8633 12.9883 50.0391 12.957C50.2148 12.9219 50.375 12.8809 50.5195 12.834V13.877C50.3672 13.9434 50.1699 14 49.9277 14.0469C49.6855 14.0938 49.4336 14.1172 49.1719 14.1172C48.8047 14.1172 48.4746 14.0566 48.1816 13.9355C47.8887 13.8105 47.6562 13.5977 47.4844 13.2969C47.3125 12.9961 47.2266 12.5801 47.2266 12.0488V8.5625H46.3418V7.94727L47.291 7.46094L47.7422 6.07227H48.6094V7.51367H50.4668V8.5625H48.6094V12.0312C48.6094 12.3594 48.6914 12.6035 48.8555 12.7637C49.0195 12.9238 49.2363 13.0039 49.5059 13.0039ZM57.4922 7.51367V14H56.4082L56.2207 13.127H56.1445C56.0078 13.3496 55.834 13.5352 55.623 13.6836C55.4121 13.8281 55.1777 13.9355 54.9199 14.0059C54.6621 14.0801 54.3906 14.1172 54.1055 14.1172C53.6172 14.1172 53.1992 14.0352 52.8516 13.8711C52.5078 13.7031 52.2441 13.4453 52.0605 13.0977C51.877 12.75 51.7852 12.3008 51.7852 11.75V7.51367H53.168V11.4922C53.168 11.9961 53.2695 12.373 53.4727 12.623C53.6797 12.873 54 12.998 54.4336 12.998C54.8516 12.998 55.1836 12.9121 55.4297 12.7402C55.6758 12.5684 55.8496 12.3145 55.9512 11.9785C56.0566 11.6426 56.1094 11.2305 56.1094 10.7422V7.51367H57.4922ZM61.6465 14.1172C60.873 14.1172 60.252 13.8359 59.7832 13.2734C59.3184 12.707 59.0859 11.873 59.0859 10.7715C59.0859 9.6582 59.3223 8.81641 59.7949 8.24609C60.2715 7.67578 60.8984 7.39062 61.6758 7.39062C62.0039 7.39062 62.291 7.43555 62.5371 7.52539C62.7832 7.61133 62.9941 7.72852 63.1699 7.87695C63.3496 8.02539 63.502 8.19141 63.627 8.375H63.6914C63.6719 8.25391 63.6484 8.08008 63.6211 7.85352C63.5977 7.62305 63.5859 7.41016 63.5859 7.21484V4.88281H64.9688V14H63.8906L63.6445 13.1152H63.5859C63.4688 13.3027 63.3203 13.4727 63.1406 13.625C62.9648 13.7734 62.7539 13.8926 62.5078 13.9824C62.2656 14.0723 61.9785 14.1172 61.6465 14.1172ZM62.0332 12.998C62.623 12.998 63.0391 12.8281 63.2812 12.4883C63.5234 12.1484 63.6484 11.6387 63.6562 10.959V10.7773C63.6562 10.0508 63.5391 9.49414 63.3047 9.10742C63.0703 8.7168 62.6426 8.52148 62.0215 8.52148C61.5254 8.52148 61.1465 8.72266 60.8848 9.125C60.627 9.52344 60.498 10.0801 60.498 10.7949C60.498 11.5098 60.627 12.0566 60.8848 12.4355C61.1465 12.8105 61.5293 12.998 62.0332 12.998ZM69.5273 7.39062C70.1055 7.39062 70.6016 7.50977 71.0156 7.74805C71.4297 7.98633 71.748 8.32422 71.9707 8.76172C72.1934 9.19922 72.3047 9.72266 72.3047 10.332V11.0703H67.9746C67.9902 11.6992 68.1582 12.1836 68.4785 12.5234C68.8027 12.8633 69.2559 13.0332 69.8379 13.0332C70.252 13.0332 70.623 12.9941 70.9512 12.916C71.2832 12.834 71.625 12.7148 71.9766 12.5586V13.6777C71.6523 13.8301 71.3223 13.9414 70.9863 14.0117C70.6504 14.082 70.248 14.1172 69.7793 14.1172C69.1426 14.1172 68.582 13.9941 68.0977 13.748C67.6172 13.498 67.2402 13.127 66.9668 12.6348C66.6973 12.1426 66.5625 11.5312 66.5625 10.8008C66.5625 10.0742 66.6855 9.45703 66.9316 8.94922C67.1777 8.44141 67.5234 8.05469 67.9688 7.78906C68.4141 7.52344 68.9336 7.39062 69.5273 7.39062ZM69.5273 8.42773C69.0938 8.42773 68.7422 8.56836 68.4727 8.84961C68.207 9.13086 68.0508 9.54297 68.0039 10.0859H70.957C70.9531 9.76172 70.8984 9.47461 70.793 9.22461C70.6914 8.97461 70.5352 8.7793 70.3242 8.63867C70.1172 8.49805 69.8516 8.42773 69.5273 8.42773ZM77.2383 7.39062C77.9688 7.39062 78.5371 7.58008 78.9434 7.95898C79.3535 8.33398 79.5586 8.9375 79.5586 9.76953V14H78.1816V10.0273C78.1816 9.52344 78.0781 9.14648 77.8711 8.89648C77.6641 8.64258 77.3438 8.51562 76.9102 8.51562C76.2812 8.51562 75.8438 8.70898 75.5977 9.0957C75.3555 9.48242 75.2344 10.043 75.2344 10.7773V14H73.8574V7.51367H74.9297L75.123 8.39258H75.1992C75.3398 8.16602 75.5137 7.98047 75.7207 7.83594C75.9316 7.6875 76.166 7.57617 76.4238 7.50195C76.6855 7.42773 76.957 7.39062 77.2383 7.39062ZM83.9004 13.0039C84.0801 13.0039 84.2578 12.9883 84.4336 12.957C84.6094 12.9219 84.7695 12.8809 84.9141 12.834V13.877C84.7617 13.9434 84.5645 14 84.3223 14.0469C84.0801 14.0938 83.8281 14.1172 83.5664 14.1172C83.1992 14.1172 82.8691 14.0566 82.5762 13.9355C82.2832 13.8105 82.0508 13.5977 81.8789 13.2969C81.707 12.9961 81.6211 12.5801 81.6211 12.0488V8.5625H80.7363V7.94727L81.6855 7.46094L82.1367 6.07227H83.0039V7.51367H84.8613V8.5625H83.0039V12.0312C83.0039 12.3594 83.0859 12.6035 83.25 12.7637C83.4141 12.9238 83.6309 13.0039 83.9004 13.0039ZM90.5918 12.1484C90.5918 12.5742 90.4883 12.9336 90.2812 13.2266C90.0742 13.5195 89.7715 13.7422 89.373 13.8945C88.9785 14.043 88.4941 14.1172 87.9199 14.1172C87.4668 14.1172 87.0762 14.084 86.748 14.0176C86.4238 13.9551 86.1172 13.8574 85.8281 13.7246V12.5352C86.1367 12.6797 86.4824 12.8047 86.8652 12.9102C87.252 13.0156 87.6172 13.0684 87.9609 13.0684C88.4141 13.0684 88.7402 12.998 88.9395 12.8574C89.1387 12.7129 89.2383 12.5215 89.2383 12.2832C89.2383 12.1426 89.1973 12.0176 89.1152 11.9082C89.0371 11.7949 88.8887 11.6797 88.6699 11.5625C88.4551 11.4414 88.1387 11.2969 87.7207 11.1289C87.3105 10.9648 86.9648 10.8008 86.6836 10.6367C86.4023 10.4727 86.1895 10.2754 86.0449 10.0449C85.9004 9.81055 85.8281 9.51172 85.8281 9.14844C85.8281 8.57422 86.0547 8.13867 86.5078 7.8418C86.9648 7.54102 87.5684 7.39062 88.3184 7.39062C88.7168 7.39062 89.0918 7.43164 89.4434 7.51367C89.7988 7.5918 90.1465 7.70703 90.4863 7.85938L90.0527 8.89648C89.7598 8.76758 89.4648 8.66211 89.168 8.58008C88.875 8.49414 88.5762 8.45117 88.2715 8.45117C87.916 8.45117 87.6445 8.50586 87.457 8.61523C87.2734 8.72461 87.1816 8.88086 87.1816 9.08398C87.1816 9.23633 87.2266 9.36523 87.3164 9.4707C87.4062 9.57617 87.5605 9.68164 87.7793 9.78711C88.002 9.89258 88.3105 10.0234 88.7051 10.1797C89.0918 10.3281 89.4258 10.4844 89.707 10.6484C89.9922 10.8086 90.2109 11.0059 90.3633 11.2402C90.5156 11.4746 90.5918 11.7773 90.5918 12.1484Z" fill="white"/>
<rect opacity="0.7" x="49" y="41" width="300" height="2" fill="#F2F2F2"/>
<circle cx="149" cy="42" r="8" fill="#F12679"/>
<circle cx="149" cy="42" r="7" stroke="#F2F2F2" stroke-opacity="0.7" stroke-width="2"/>
<circle cx="245" cy="42" r="8" fill="#F12679"/>
<circle cx="245" cy="42" r="7" stroke="#F2F2F2" stroke-opacity="0.7" stroke-width="2"/>
<circle cx="345" cy="42" r="8" fill="#F12679"/>
<circle cx="345" cy="42" r="7" stroke="#F2F2F2" stroke-opacity="0.7" stroke-width="2"/>
<circle cx="51" cy="42" r="7" fill="white" stroke="white" stroke-width="2"/>
<circle cx="51" cy="42" r="5" fill="white" stroke="#F12679" stroke-width="2"/>
</svg>
