<svg width="106" height="92" viewBox="0 0 106 92" fill="none" xmlns="http://www.w3.org/2000/svg">
<g clip-path="url(#clip0_187_1687)">
<path d="M57.8141 88.7431C57.7292 88.7469 57.6451 88.7248 57.5732 88.6798C57.5014 88.6347 57.4453 88.5689 57.4125 88.4912C57.3797 88.4135 57.3718 88.3277 57.3899 88.2454C57.408 88.1631 57.4511 88.0883 57.5136 88.0311L57.542 87.9192C57.5382 87.9102 57.5345 87.9013 57.5307 87.8923C57.4451 87.6921 57.3018 87.5214 57.1186 87.4017C56.9354 87.2819 56.7206 87.2185 56.5011 87.2193C56.2817 87.2201 56.0674 87.2851 55.8851 87.4062C55.7028 87.5273 55.5607 87.699 55.4767 87.8999C55.1407 88.7014 54.713 89.5044 54.6077 90.3519C54.5613 90.7265 54.5809 91.1063 54.6655 91.4743C53.8765 89.7691 53.4667 87.9158 53.4641 86.0401C53.4639 85.5694 53.4903 85.099 53.5432 84.6312C53.5868 84.2477 53.6474 83.867 53.7249 83.489C54.1478 81.4378 55.0559 79.5154 56.3744 77.8794C57.0126 77.5344 57.5287 77.004 57.8531 76.3595C57.9707 76.1278 58.0538 75.8805 58.0998 75.6253C58.0278 75.6346 57.8284 74.5485 57.8827 74.4818C57.7823 74.331 57.6028 74.256 57.4932 74.1089C56.9483 73.377 56.1975 73.5048 55.8056 74.4994C54.9683 74.918 54.9602 75.6123 55.4739 76.28C55.8008 76.7048 55.8457 77.2796 56.1325 77.7344C56.103 77.7718 56.0723 77.8081 56.0428 77.8455C55.5034 78.5325 55.0334 79.2703 54.6393 80.0482C54.7351 79.1767 54.6207 78.2952 54.3056 77.476C53.9861 76.7126 53.3874 76.0697 52.8602 75.4097C52.2269 74.617 50.9282 74.963 50.8166 75.9679C50.8155 75.9776 50.8145 75.9873 50.8135 75.9971C50.8918 76.0408 50.9684 76.0873 51.0434 76.1364C51.1377 76.1988 51.2107 76.2879 51.2529 76.3921C51.2951 76.4963 51.3046 76.6106 51.2801 76.7202C51.2556 76.8299 51.1982 76.9296 51.1155 77.0063C51.0329 77.0831 50.9287 77.1333 50.8167 77.1504L50.8052 77.1522C50.8331 77.4318 50.8824 77.7089 50.9527 77.9811C50.2763 80.5725 51.7366 81.5163 53.8217 81.5587C53.8677 81.5821 53.9126 81.6055 53.9586 81.6277C53.5627 82.7392 53.3143 83.897 53.2198 85.072C53.1663 85.7652 53.1695 86.4615 53.2293 87.1542L53.2257 87.1297C53.0746 86.3594 52.6599 85.6644 52.0514 85.162C51.1478 84.4266 49.8711 84.1558 48.8962 83.5647C48.7926 83.4988 48.6721 83.4636 48.549 83.4633C48.4259 83.463 48.3052 83.4976 48.2013 83.563C48.0974 83.6284 48.0145 83.7219 47.9624 83.8324C47.9103 83.943 47.8913 84.0659 47.9074 84.1869C47.9088 84.1955 47.9101 84.2041 47.9114 84.2127C48.0568 84.2713 48.1983 84.3389 48.3351 84.4149C48.4134 84.4587 48.4901 84.5052 48.5651 84.5543C48.6593 84.6167 48.7323 84.7058 48.7746 84.81C48.8168 84.9141 48.8263 85.0285 48.8018 85.1381C48.7773 85.2477 48.7199 85.3475 48.6372 85.4242C48.5545 85.501 48.4503 85.5512 48.3383 85.5683L48.3268 85.57C48.3186 85.5712 48.3115 85.5724 48.3033 85.5736C48.5516 86.1609 48.9001 86.7016 49.3335 87.1718C49.7565 89.434 51.573 89.6486 53.516 88.9898H53.5172C53.7304 89.9076 54.0393 90.801 54.4389 91.6555H57.7316C57.7434 91.6192 57.754 91.5818 57.7646 91.5456C57.4599 91.5646 57.1539 91.5465 56.8535 91.4918C57.0978 91.1948 57.3421 90.8955 57.5864 90.5986C57.5919 90.593 57.597 90.5872 57.6018 90.581C57.7257 90.4291 57.8508 90.2782 57.9747 90.1262L57.9748 90.1261C57.9814 89.6602 57.9274 89.1954 57.8142 88.7431L57.8141 88.7431Z" fill="#F2F2F2"/>
<path d="M52.9357 37.1657C49.2257 37.1657 45.599 36.0759 42.5143 34.034C39.4296 31.9921 37.0253 29.0898 35.6056 25.6942C34.1859 22.2987 33.8144 18.5623 34.5382 14.9575C35.262 11.3528 37.0485 8.04166 39.6718 5.4428C42.2952 2.84394 45.6375 1.0741 49.2762 0.357073C52.9149 -0.359951 56.6864 0.00805137 60.114 1.41454C63.5416 2.82104 66.4712 5.20285 68.5323 8.25879C70.5935 11.3147 71.6936 14.9075 71.6936 18.5829C71.688 23.5096 69.7099 28.233 66.1933 31.7168C62.6767 35.2005 57.9088 37.1602 52.9357 37.1657ZM52.9357 0.292652C49.2841 0.292652 45.7146 1.36535 42.6784 3.37511C39.6423 5.38487 37.2759 8.24141 35.8785 11.5835C34.4811 14.9256 34.1155 18.6032 34.8279 22.1511C35.5403 25.6991 37.2987 28.9581 39.8807 31.516C42.4627 34.0739 45.7524 35.8159 49.3338 36.5217C52.9152 37.2274 56.6274 36.8652 60.001 35.4808C63.3746 34.0965 66.258 31.7522 68.2867 28.7444C70.3154 25.7366 71.3982 22.2003 71.3982 18.5829C71.3927 13.7337 69.4457 9.08468 65.9845 5.65579C62.5233 2.22689 57.8305 0.298132 52.9357 0.292652Z" fill="#F2F2F2"/>
<path d="M54.994 25.3138H51.0061C50.8102 25.3138 50.6224 25.2367 50.4839 25.0995C50.3454 24.9623 50.2676 24.7762 50.2676 24.5822C50.2676 24.3882 50.3454 24.2021 50.4839 24.0649C50.6224 23.9277 50.8102 23.8506 51.0061 23.8506H54.994C55.1898 23.8506 55.3777 23.9277 55.5162 24.0649C55.6547 24.2021 55.7325 24.3882 55.7325 24.5822C55.7325 24.7762 55.6547 24.9623 55.5162 25.0995C55.3777 25.2367 55.1898 25.3138 54.994 25.3138Z" fill="#E6E6E6"/>
<path d="M55.9102 46.5476H50.09C49.8042 46.5476 49.53 46.4351 49.3279 46.2349C49.1258 46.0346 49.0122 45.763 49.0122 45.4799C49.0122 45.1967 49.1258 44.9251 49.3279 44.7248C49.53 44.5246 49.8042 44.4121 50.09 44.4121H55.9102C56.1961 44.4121 56.4702 44.5246 56.6723 44.7248C56.8745 44.9251 56.988 45.1967 56.988 45.4799C56.988 45.763 56.8745 46.0346 56.6723 46.2349C56.4702 46.4351 56.1961 46.5476 55.9102 46.5476Z" fill="white"/>
<path d="M72.4538 42.0719H33.5459C33.1992 42.0715 32.8669 41.9349 32.6217 41.692C32.3766 41.4492 32.2387 41.1199 32.2383 40.7765V29.2852C32.2387 28.9417 32.3766 28.6125 32.6217 28.3696C32.8669 28.1268 33.1992 27.9901 33.5459 27.9897H72.4538C72.8004 27.9901 73.1328 28.1268 73.378 28.3696C73.6231 28.6125 73.761 28.9417 73.7614 29.2852V40.7765C73.761 41.1199 73.6231 41.4492 73.378 41.692C73.1328 41.9349 72.8004 42.0715 72.4538 42.0719Z" fill="#E6E6E6"/>
<path d="M68.6735 41.1981H34.4282C34.0815 41.1977 33.7492 41.0611 33.504 40.8183C33.2589 40.5754 33.121 40.2462 33.1206 39.9027V30.1597C33.121 29.8162 33.2589 29.487 33.504 29.2441C33.7492 29.0013 34.0815 28.8647 34.4282 28.8643H71.5719C71.9186 28.8647 72.2509 29.0013 72.4961 29.2441C72.7412 29.487 72.8791 29.8162 72.8795 30.1597V37.0314C72.8783 38.1361 72.4347 39.1952 71.6462 39.9764C70.8577 40.7575 69.7886 41.1969 68.6735 41.1981Z" fill="white"/>
<path d="M56.861 32.3293H41.223C41.1335 32.3293 41.0478 32.2941 40.9845 32.2315C40.9213 32.1688 40.8857 32.0838 40.8857 31.9952C40.8857 31.9066 40.9213 31.8216 40.9845 31.759C41.0478 31.6963 41.1335 31.6611 41.223 31.6611H56.861C56.9504 31.6611 57.0362 31.6963 57.0994 31.759C57.1627 31.8216 57.1982 31.9066 57.1982 31.9952C57.1982 32.0838 57.1627 32.1688 57.0994 32.2315C57.0362 32.2941 56.9504 32.3293 56.861 32.3293Z" fill="#F12679"/>
<path d="M64.7772 33.696H41.223C41.1335 33.696 41.0478 33.6608 40.9845 33.5982C40.9213 33.5355 40.8857 33.4505 40.8857 33.3619C40.8857 33.2733 40.9213 33.1883 40.9845 33.1257C41.0478 33.063 41.1335 33.0278 41.223 33.0278H64.7772C64.8667 33.0278 64.9524 33.063 65.0157 33.1257C65.0789 33.1883 65.1145 33.2733 65.1145 33.3619C65.1145 33.4505 65.0789 33.5355 65.0157 33.5982C64.9524 33.6608 64.8667 33.696 64.7772 33.696Z" fill="#E6E6E6"/>
<path d="M64.7769 35.2644H41.2227C41.1784 35.2645 41.1344 35.2559 41.0934 35.2391C41.0524 35.2224 41.0152 35.1978 40.9838 35.1668C40.9524 35.1357 40.9275 35.0989 40.9105 35.0583C40.8935 35.0177 40.8848 34.9742 40.8848 34.9303C40.8848 34.8863 40.8935 34.8428 40.9105 34.8023C40.9275 34.7617 40.9524 34.7248 40.9838 34.6938C41.0152 34.6628 41.0524 34.6382 41.0934 34.6214C41.1344 34.6047 41.1784 34.5961 41.2227 34.5962H64.7769C64.8663 34.5964 64.9519 34.6317 65.0149 34.6943C65.078 34.7569 65.1135 34.8418 65.1135 34.9303C65.1135 35.0188 65.078 35.1036 65.0149 35.1663C64.9519 35.2289 64.8663 35.2642 64.7769 35.2644Z" fill="#E6E6E6"/>
<path d="M64.7769 36.8327H41.2227C41.1784 36.8328 41.1344 36.8242 41.0934 36.8075C41.0524 36.7907 41.0152 36.7662 40.9838 36.7351C40.9524 36.7041 40.9275 36.6672 40.9105 36.6266C40.8935 36.5861 40.8848 36.5426 40.8848 36.4986C40.8848 36.4547 40.8935 36.4112 40.9105 36.3706C40.9275 36.33 40.9524 36.2932 40.9838 36.2622C41.0152 36.2311 41.0524 36.2065 41.0934 36.1898C41.1344 36.173 41.1784 36.1645 41.2227 36.1646H64.7769C64.8663 36.1647 64.9519 36.2 65.0149 36.2626C65.078 36.3253 65.1135 36.4102 65.1135 36.4986C65.1135 36.5871 65.078 36.672 65.0149 36.7346C64.9519 36.7973 64.8663 36.8325 64.7769 36.8327Z" fill="#E6E6E6"/>
<path d="M64.7769 38.4011H41.2227C41.1784 38.4012 41.1344 38.3926 41.0934 38.3759C41.0524 38.3591 41.0152 38.3345 40.9838 38.3035C40.9524 38.2724 40.9275 38.2356 40.9105 38.195C40.8935 38.1544 40.8848 38.1109 40.8848 38.067C40.8848 38.0231 40.8935 37.9796 40.9105 37.939C40.9275 37.8984 40.9524 37.8615 40.9838 37.8305C41.0152 37.7995 41.0524 37.7749 41.0934 37.7581C41.1344 37.7414 41.1784 37.7328 41.2227 37.7329H64.7769C64.8663 37.7331 64.9519 37.7684 65.0149 37.831C65.078 37.8936 65.1135 37.9785 65.1135 38.067C65.1135 38.1555 65.078 38.2404 65.0149 38.303C64.9519 38.3656 64.8663 38.4009 64.7769 38.4011Z" fill="#E6E6E6"/>
<path d="M85.4726 90.1102L83.8921 90.11L83.1401 84.0703L85.4731 84.0705L85.4726 90.1102Z" fill="#A0616A"/>
<path d="M85.5281 91.7437L80.6675 91.7435V91.6826C80.6675 91.1855 80.8669 90.7088 81.2216 90.3574C81.5764 90.0059 82.0576 89.8084 82.5594 89.8084H82.5595L83.4473 89.1411L85.1038 89.8085L85.5282 89.8085L85.5281 91.7437Z" fill="#2F2E41"/>
<path d="M98.3949 88.1054L96.9786 88.8004L93.5981 83.7192L95.6885 82.6934L98.3949 88.1054Z" fill="#A0616A"/>
<path d="M99.1765 89.5446L94.8211 91.6822L94.7938 91.6276C94.5711 91.1822 94.5361 90.6674 94.6964 90.1964C94.8568 89.7254 95.1995 89.3369 95.6491 89.1162L95.6492 89.1161L96.1457 88.1277L97.9291 87.9971L98.3093 87.8105L99.1765 89.5446Z" fill="#2F2E41"/>
<path d="M80.7898 57.6453C80.7898 57.6453 78.9906 60.1301 80.2893 64.423C81.588 68.7159 80.8589 72.5539 81.2235 73.3235C81.588 74.093 82.3219 74.8239 81.7155 75.4074C81.1091 75.9909 80.7898 76.4653 81.2687 76.6235C81.7477 76.7816 83.3441 87.8522 83.3441 87.8522L86.058 88.0103C86.058 88.0103 87.0411 82.8678 85.9908 78.7176C85.9908 78.7176 86.2214 75.7048 85.7406 74.8199C85.2598 73.9349 85.354 74.7331 85.3867 73.6223C85.4048 72.819 85.523 72.0209 85.7387 71.2463C85.8983 70.6137 85.9908 64.2379 85.9908 64.2379L88.6327 72.6988C88.7387 72.9903 88.7785 73.3014 88.7492 73.6099C88.6839 74.0457 88.6833 74.697 88.7634 74.9249C88.8435 75.1528 88.9327 75.2007 88.8881 75.6512C88.8435 76.1017 94.1607 85.598 94.1607 85.598L96.8026 83.8422L94.1997 75.5164C93.9412 75.2327 93.7261 74.913 93.5611 74.5675C93.2418 73.9349 93.2294 73.9 93.3953 73.443C93.5611 72.986 93.5611 72.0956 93.5611 71.8291C93.5611 71.5626 93.727 59.4645 91.6485 57.6851C89.5701 55.9057 80.7898 57.6453 80.7898 57.6453Z" fill="#2F2E41"/>
<path d="M90.5494 38.398L90.0085 36.8729L88.5315 35.4096L85.8071 35.0874L84.0335 36.2426L82.3908 37.8468L79.9648 57.7969C79.9648 57.7969 91.4238 62.1736 92.9252 58.5005L90.5494 38.398Z" fill="#CCCCCC"/>
<path d="M91.4785 38.3981L89.8869 36.8213C89.8869 36.8213 89.1266 46.8987 89.4505 47.6075C89.7744 48.3163 90.1559 48.1354 89.7436 48.5185C89.3313 48.9016 88.8882 48.5213 89.3313 49.2236C89.5924 49.6173 89.7205 50.0831 89.6971 50.5536C89.6971 50.5536 91.9899 64.8506 93.3192 64.8506C94.6485 64.8506 95.4807 64.4651 95.4339 64.0726C95.387 63.68 94.6029 62.7027 94.8472 62.4598C95.0916 62.2168 95.694 62.4003 95.0974 61.9428C94.5008 61.4852 94.2054 61.6315 94.3531 61.0463C94.5008 60.461 93.3716 52.8736 93.3716 52.8736L93.2615 40.2001L91.4785 38.3981Z" fill="#3F3D56"/>
<path d="M84.0338 36.2427L81.9725 36.5316L79.5221 37.4582C79.5221 37.4582 80.6413 49.9661 80.4076 50.3849C80.1739 50.8037 79.7587 50.5422 80.114 50.9656C80.4693 51.389 80.789 51.2012 80.4076 51.5878C80.0262 51.9743 79.3842 51.4847 79.7791 52.1685C80.1739 52.8523 78.2713 62.2669 78.7836 62.7719C79.2959 63.2769 80.6159 62.9627 80.6164 62.5898C80.5761 62.1878 80.4228 61.8052 80.1739 61.4852C80.1025 61.4042 80.0631 61.3002 80.0631 61.1926C80.0631 61.085 80.1025 60.981 80.1739 60.9C80.3832 60.7005 80.527 60.4432 80.5864 60.1616C80.617 59.8757 80.8426 59.5243 80.9514 59.261C81.0601 58.9978 83.7988 41.177 83.7988 41.177L84.0338 36.2427Z" fill="#3F3D56"/>
<path d="M75.2388 46.0913L76.1684 45.6104C75.0077 44.5733 72.1278 42.8763 72.1278 42.8763L67.1641 39.5612C67.0914 39.3917 66.975 39.2442 66.8264 39.1335C66.6779 39.0228 66.5026 38.9528 66.3181 38.9305C66.1336 38.9083 65.9465 38.9346 65.7755 39.0068C65.6045 39.079 65.4557 39.1945 65.3442 39.3418C65.2326 39.489 65.1622 39.6628 65.1399 39.8456C65.1177 40.0284 65.1445 40.2138 65.2175 40.3831C65.2906 40.5524 65.4074 40.6996 65.5562 40.81C65.705 40.9203 65.8805 40.9899 66.065 41.0117L71.6276 45.9487L75.2388 46.0913Z" fill="#A0616A"/>
<path d="M82.0326 42.4332L82.0427 38.3897L79.7753 37.3154L74.0568 43.3111L73.6137 43.0184H72.5798L70.0688 45.9449C70.0688 45.9449 71.4062 46.73 72.0668 46.4106C72.7275 46.0912 72.6654 46.5501 72.6654 46.5501C72.7634 46.6722 72.9 46.7581 73.0533 46.7938C73.2065 46.8295 73.3675 46.813 73.5102 46.747C74.0568 46.5302 75.0907 47.1154 75.0907 47.1154L82.0326 42.4332Z" fill="#3F3D56"/>
<path d="M87.4671 34.1586C89.2932 34.1586 90.7736 32.6921 90.7736 30.883C90.7736 29.074 89.2932 27.6074 87.4671 27.6074C85.641 27.6074 84.1606 29.074 84.1606 30.883C84.1606 32.6921 85.641 34.1586 87.4671 34.1586Z" fill="#A0616A"/>
<path d="M91.4585 31.7149C91.1463 32.3201 90.7274 32.865 90.2215 33.324C90.0762 33.4876 89.8909 33.6113 89.6834 33.6835C89.5791 33.7172 89.4661 33.7135 89.3643 33.6732C89.2624 33.6329 89.178 33.5585 89.1258 33.4629L89.0645 33.38C89.2417 33.3263 89.4089 33.2444 89.5595 33.1375C89.6343 33.0836 89.695 33.0129 89.7366 32.9311C89.7783 32.8493 89.7996 32.7588 89.7989 32.6672C89.7935 32.5757 89.7525 32.4897 89.6845 32.4275C89.6165 32.3653 89.5268 32.3315 89.4343 32.3334C89.2278 32.3578 89.0432 32.5967 88.8581 32.5046C88.7086 32.4293 88.73 32.2138 88.7729 32.051C89.003 31.2016 88.9067 29.885 88.5756 29.839C88.2463 29.7726 87.9325 29.6454 87.6507 29.464C87.3686 29.2823 87.0535 29.1568 86.723 29.0943C86.6991 29.0912 86.675 29.0895 86.6493 29.0875C86.6399 28.9123 86.6091 28.739 86.5576 28.5712C86.5217 28.7484 86.4668 28.9213 86.3939 29.087C86.1076 29.1256 85.8185 29.1401 85.5297 29.1303C85.2219 29.0949 84.3373 29.8054 84.3307 29.7076C84.3212 29.5325 84.2904 29.3591 84.239 29.1913C84.2031 29.3685 84.1482 29.5414 84.0753 29.7071C84.072 29.7139 84.0705 29.7196 84.0671 29.7264C83.9731 29.4992 83.9462 29.2452 83.9485 29.4349C83.751 28.2278 84.1427 27.5011 85.1426 26.7853C85.3424 26.6274 85.5793 26.5224 85.8312 26.48C85.957 26.4601 86.0858 26.4726 86.2053 26.5163C86.3249 26.5601 86.431 26.6336 86.5135 26.7297C86.8974 26.5285 87.3287 26.4327 87.7626 26.4522C88.1965 26.4717 88.6172 26.6057 88.9812 26.8405C89.7004 27.3179 90.2679 27.6355 90.1722 28.4891C90.8539 28.5542 91.4298 29.0966 91.6452 29.7395C91.8587 30.3834 91.7478 31.102 91.4585 31.7149Z" fill="#2F2E41"/>
<path d="M95.6792 48.7829L93.307 48.4463C92.5047 49.7753 92.2197 53.3127 92.2197 53.3127L89.8981 58.7791C89.7444 58.8825 89.6208 59.0243 89.54 59.19C89.4591 59.3558 89.4237 59.5398 89.4375 59.7234C89.4512 59.907 89.5135 60.0838 89.6181 60.236C89.7227 60.3882 89.8659 60.5104 90.0334 60.5903C90.2008 60.6702 90.3865 60.7051 90.5719 60.6913C90.7572 60.6775 90.9356 60.6155 91.0891 60.5117C91.2426 60.4079 91.3658 60.2659 91.4462 60.0999C91.5267 59.9339 91.5616 59.7499 91.5475 59.5663L95.3592 53.2037L95.6792 48.7829Z" fill="#A0616A"/>
<path d="M90.2173 40.6342L91.2224 39.2627L93.2606 40.201L94.9559 46.6791C94.9559 46.6791 96.1938 47.4772 95.9297 48.0402C95.6656 48.6031 95.5252 49.0574 95.7982 49.38C96.0712 49.7026 96.8663 49.7263 96.274 50.2523C95.6818 50.7783 96.1888 52.1526 96.1888 52.1526L95.6212 53.4075L92.0764 53.2611L90.2173 40.6342Z" fill="#3F3D56"/>
<path d="M8.23269 60.7256C8.45644 60.5517 8.60285 60.2982 8.64078 60.0189C8.67871 59.7397 8.60516 59.4568 8.43577 59.2305C8.40061 59.185 8.36171 59.1425 8.31947 59.1034L9.83312 55.6408L8.32979 54.2617L6.77395 59.2272C6.62381 59.4132 6.54008 59.6433 6.53582 59.8815C6.53155 60.1197 6.60699 60.3525 6.75037 60.5438C6.83301 60.6518 6.93632 60.7427 7.05441 60.8112C7.17249 60.8796 7.30303 60.9244 7.43858 60.9429C7.57413 60.9614 7.71203 60.9533 7.84441 60.919C7.97679 60.8847 8.10105 60.8249 8.21011 60.743C8.21772 60.7373 8.22524 60.7315 8.23269 60.7256Z" fill="#FFB6B6"/>
<path d="M17.0263 38.2633C17.0263 38.2633 15.9058 36.1532 13.3066 38.432C10.7074 40.7108 7.63592 52.1173 7.69557 52.5462C7.75521 52.975 8.39051 52.8054 7.58696 53.4228C6.7834 54.0402 6.3391 53.4855 6.78339 54.0402C7.22769 54.5949 8.22126 55.1826 7.34153 55.2651C6.4618 55.3476 9.6868 56.7222 9.6868 56.7222C9.6868 56.7222 10.1941 56.6015 10.3497 55.442C10.4371 54.7908 10.1409 54.4209 10.6623 54.3124C11.1837 54.2039 10.695 53.0261 10.77 52.8408C10.8451 52.6555 15.0084 44.5618 15.0084 44.5618L17.0263 38.2633Z" fill="#F2F2F2"/>
<path d="M22.143 89.7984L24.025 89.7983L24.9205 82.606L22.1426 82.6061L22.143 89.7984Z" fill="#FFB6B6"/>
<path d="M22.0768 91.7437L27.8648 91.7435V91.671C27.8648 91.0791 27.6274 90.5114 27.2049 90.0929C26.7825 89.6743 26.2094 89.4392 25.612 89.4391H25.6118L24.5545 88.6445L22.5819 89.4393L22.0767 89.4393L22.0768 91.7437Z" fill="#2F2E41"/>
<path d="M8.9502 86.3685L10.4898 87.4409L15.3985 82.0678L13.1258 80.4849L8.9502 86.3685Z" fill="#FFB6B6"/>
<path d="M7.7666 87.9222L12.5014 91.2203L12.5435 91.161C12.8872 90.6767 13.0226 90.0771 12.92 89.494C12.8174 88.9109 12.4852 88.392 11.9965 88.0515L11.9964 88.0514L11.5929 86.799L9.51784 86.325L9.10452 86.0371L7.7666 87.9222Z" fill="#2F2E41"/>
<path d="M14.6439 54.017L14.4875 54.3479C13.4595 56.5237 13.1966 58.9558 13.5961 61.3252C13.6258 61.4177 13.6201 61.5178 13.5802 61.6064C13.3324 61.8943 13.7211 63.145 13.9439 63.8434L14.1448 65.0784C14.1448 65.0784 13.8118 66.2254 14.3176 66.1411C14.8234 66.0568 14.0702 67.2803 14.5527 67.5868L15.8043 75.2837L10.5825 83.8096L12.5165 86.5877L20.2524 76.7207L20.3491 67.8116L21.5095 74.9964L21.6062 86.3003L25.1246 85.9298L26.4136 74.9705L25.184 59.8142L23.2501 53.2427L14.6439 54.017Z" fill="#2F2E41"/>
<path d="M17.061 34.2847L19.9074 34.4189L21.2685 36.7484C21.8721 36.9278 22.4273 37.2392 22.8932 37.6596C23.359 38.08 23.7236 38.5987 23.9601 39.1774L24.8464 41.3467L23.8381 53.8891C23.8381 53.8891 23.636 54.6477 24.0082 54.5369C24.3803 54.4262 24.2286 55.3769 24.2286 55.3769L25.6002 60.6029L13.1303 59.5287L13.8227 53.9918C13.8227 53.9918 12.8601 54.0225 13.537 53.352C14.2138 52.6814 14.543 52.895 13.8928 52.1022C13.2425 51.3095 13.1458 50.7347 13.1458 50.7347L12.8557 46.807L12.3775 41.2795C12.3016 40.4024 12.447 39.5204 12.8005 38.7127C13.1541 37.9051 13.7047 37.1972 14.4029 36.6526L17.061 34.2847Z" fill="#F2F2F2"/>
<path d="M18.537 33.6379C20.5305 33.6379 22.1467 32.0368 22.1467 30.0619C22.1467 28.0869 20.5305 26.4858 18.537 26.4858C16.5434 26.4858 14.9272 28.0869 14.9272 30.0619C14.9272 32.0368 16.5434 33.6379 18.537 33.6379Z" fill="#FFB6B6"/>
<path d="M17.1423 33.3445C18.1781 33.3108 18.2722 33.0397 19.3081 33.0061C19.6379 32.9954 20.0271 32.9506 20.1866 32.6643C20.233 32.5571 20.2536 32.4407 20.2469 32.3242C20.2402 32.2077 20.2063 32.0944 20.1479 31.993C20.0297 31.7919 19.9232 31.5843 19.8288 31.3712C19.772 31.204 19.7571 31.0257 19.7854 30.8516C19.8137 30.6775 19.8844 30.5128 19.9913 30.3718C20.0983 30.2308 20.2383 30.1177 20.3993 30.0424C20.5602 29.967 20.7373 29.9316 20.9151 29.9392C21.2304 29.9527 21.5264 30.0995 21.8408 30.1264C22.2719 30.1632 23.2252 28.753 23.0267 28.3721C22.8335 28.0014 22.4447 27.7216 22.3835 27.3087C22.3436 27.0387 22.4561 26.7704 22.4715 26.4979C22.4943 26.0939 21.4604 27.0049 21.6498 26.6463C22.1142 25.7667 17.7376 24.6763 17.0171 25.7781C16.7478 26.1898 16.2679 26.1617 15.8401 26.409C15.5597 26.5711 14.8518 27.1303 14.6909 27.4788C14.543 27.8344 14.4731 28.2171 14.4859 28.6015C14.4794 30.3893 14.7543 32.0338 16.21 33.0906" fill="#2F2E41"/>
<path d="M27.3898 60.5719C27.1769 60.3851 27.0461 60.1233 27.025 59.8423C27.004 59.5613 27.0945 59.2833 27.2772 59.0674C27.315 59.0241 27.3564 58.984 27.4009 58.9474L26.0986 55.4015L27.6824 54.1138L28.9362 59.1624C29.0749 59.357 29.1446 59.5916 29.1345 59.8296C29.1244 60.0676 29.0351 60.2956 28.8804 60.478C28.7914 60.581 28.6828 60.6656 28.5608 60.7269C28.4388 60.7883 28.3058 60.8253 28.1694 60.8358C28.033 60.8462 27.8958 60.8299 27.7657 60.7879C27.6357 60.7458 27.5152 60.6788 27.4113 60.5906C27.4041 60.5845 27.3969 60.5782 27.3898 60.5719Z" fill="#FFB6B6"/>
<path d="M19.9653 37.6294C19.9653 37.6294 21.2109 35.5893 23.6682 38.0177C26.1255 40.4462 28.5041 52.014 28.4187 52.4386C28.3334 52.8631 27.7094 52.6562 28.4743 53.32C29.2393 53.9839 29.7162 53.4564 29.2393 53.9839C28.7623 54.5113 27.7351 55.0392 28.6083 55.1736C29.4815 55.308 26.1794 56.4894 26.1794 56.4894C26.1794 56.4894 25.6804 56.3389 25.5949 55.1723C25.5469 54.517 25.8648 54.1654 25.3509 54.0262C24.8369 53.887 25.3957 52.7403 25.332 52.5509C25.2682 52.3614 21.6001 44.036 21.6001 44.036L19.9653 37.6294Z" fill="#F2F2F2"/>
<path d="M56.9749 17.0849C56.9751 17.8648 56.7422 18.6271 56.3055 19.2756C55.8689 19.9241 55.2482 20.4297 54.522 20.7283C53.7957 21.0269 52.9965 21.1052 52.2254 20.9532C51.4543 20.8013 50.7459 20.4259 50.1899 19.8746C49.6338 19.3234 49.255 18.6209 49.1015 17.8561C48.9479 17.0913 49.0264 16.2985 49.3271 15.578C49.6278 14.8574 50.1371 14.2415 50.7907 13.8081C51.4443 13.3747 52.2127 13.1433 52.9989 13.1431C53.5211 13.1424 54.0382 13.2439 54.5208 13.4417C55.0034 13.6395 55.4419 13.9298 55.8112 14.296C56.1805 14.6621 56.4734 15.0969 56.6731 15.5755C56.8728 16.0541 56.9753 16.567 56.9749 17.0849Z" fill="white"/>
<path d="M52.9929 17.2936C53.5639 17.2936 54.0268 16.835 54.0268 16.2694C54.0268 15.7037 53.5639 15.2451 52.9929 15.2451C52.4219 15.2451 51.959 15.7037 51.959 16.2694C51.959 16.835 52.4219 17.2936 52.9929 17.2936Z" fill="#F12679"/>
<path d="M54.1011 17.6597H51.8856C51.7485 17.6598 51.6171 17.7138 51.5202 17.8098C51.4233 17.9058 51.3688 18.036 51.3687 18.1718C51.4002 18.6104 51.4694 19.0456 51.5754 19.4726C52.0197 19.6994 52.5149 19.8108 53.0146 19.7962C53.5142 19.7816 54.0019 19.6415 54.432 19.3892C54.5268 18.989 54.589 18.5819 54.6181 18.1718C54.6179 18.036 54.5634 17.9058 54.4665 17.8098C54.3696 17.7138 54.2382 17.6598 54.1011 17.6597Z" fill="#F12679"/>
<path d="M7.77938e-07 91.826C-6.80606e-05 91.8489 0.00443232 91.8715 0.0132414 91.8927C0.0220505 91.9138 0.0349936 91.9331 0.0513294 91.9493C0.0676652 91.9654 0.0870709 91.9783 0.108428 91.987C0.129784 91.9957 0.152672 92.0002 0.175773 92.0001H105.824C105.871 92.0001 105.916 91.9818 105.949 91.9491C105.981 91.9164 106 91.8722 106 91.826C106 91.7798 105.981 91.7355 105.949 91.7029C105.916 91.6702 105.871 91.6519 105.824 91.6519H0.175773C0.152672 91.6518 0.129784 91.6562 0.108428 91.665C0.0870712 91.6737 0.0676673 91.6865 0.0513316 91.7027C0.034996 91.7189 0.0220508 91.7381 0.0132414 91.7593C0.00443204 91.7804 -6.72765e-05 91.8031 7.77938e-07 91.826Z" fill="#CCCCCC"/>
</g>
<defs>
<clipPath id="clip0_187_1687">
<rect width="106" height="92" fill="white"/>
</clipPath>
</defs>
</svg>
